<?xml version="1.0" encoding="UTF-8"?>
<svg xmlns="http://www.w3.org/2000/svg" xmlns:xlink="http://www.w3.org/1999/xlink" width="1125pt" height="525.000007pt" viewBox="0 0 1125 525.000007" version="1.2">
<defs>
<clipPath id="clip1">
  <path d="M 1.070312 0 L 1123.929688 0 L 1123.929688 524 L 1.070312 524 Z M 1.070312 0 "/>
</clipPath>
<filter id="alpha" filterUnits="objectBoundingBox" x="0%" y="0%" width="100%" height="100%">
  <feColorMatrix type="matrix" in="SourceGraphic" values="0 0 0 0 1 0 0 0 0 1 0 0 0 0 1 0 0 0 1 0"/>
</filter>
<mask id="mask0">
  <g filter="url(#alpha)">
<rect x="0" y="0" width="1125" height="525.000007" style="fill:rgb(0%,0%,0%);fill-opacity:0.498;stroke:none;"/>
  </g>
</mask>
<clipPath id="clip3">
  <path d="M 1 0.269531 L 79 0.269531 L 79 50 L 1 50 Z M 1 0.269531 "/>
</clipPath>
<clipPath id="clip4">
  <path d="M 0.289062 0.269531 L 79 0.269531 L 79 50.261719 L 0.289062 50.261719 Z M 0.289062 0.269531 "/>
</clipPath>
<clipPath id="clip2">
  <rect x="0" y="0" width="81" height="52"/>
</clipPath>
<g id="surface5" clip-path="url(#clip2)">
<g clip-path="url(#clip3)" clip-rule="nonzero">
<path style=" stroke:none;fill-rule:nonzero;fill:rgb(100%,100%,100%);fill-opacity:1;" d="M 28.011719 49.675781 C 22.960938 49.675781 18.367188 46.988281 15.886719 42.625 C 14.609375 43.285156 13.195312 43.667969 11.753906 43.742188 C 11.574219 43.753906 11.40625 43.753906 11.230469 43.753906 C 5.855469 43.753906 1.433594 39.554688 1.15625 34.191406 C 1.019531 31.503906 1.9375 28.921875 3.746094 26.929688 C 5.425781 25.066406 7.6875 23.917969 10.167969 23.660156 C 10.148438 23.480469 10.132812 23.300781 10.125 23.121094 C 9.988281 20.433594 10.90625 17.851562 12.714844 15.851562 C 14.523438 13.855469 17 12.679688 19.691406 12.542969 C 19.867188 12.53125 20.039062 12.53125 20.214844 12.53125 C 20.738281 12.53125 21.261719 12.570312 21.777344 12.648438 C 22.179688 6.296875 27.320312 1.171875 33.761719 0.84375 C 33.984375 0.832031 34.199219 0.828125 34.417969 0.828125 C 39.34375 0.828125 43.78125 3.65625 45.863281 8.082031 C 46.789062 7.855469 47.738281 7.71875 48.691406 7.671875 C 48.949219 7.65625 49.214844 7.652344 49.472656 7.652344 C 55.484375 7.652344 60.867188 11.160156 63.292969 16.625 C 71.308594 16.96875 77.847656 23.417969 78.261719 31.460938 C 78.699219 40.082031 72.035156 47.453125 63.398438 47.890625 C 63.128906 47.90625 62.855469 47.914062 62.589844 47.914062 C 58.753906 47.914062 55.109375 46.53125 52.238281 44.007812 C 50.515625 46.863281 47.460938 48.703125 44.105469 48.875 C 43.929688 48.886719 43.757812 48.886719 43.582031 48.886719 C 41.140625 48.886719 38.816406 48.019531 36.980469 46.425781 C 34.667969 48.359375 31.757812 49.503906 28.734375 49.660156 C 28.492188 49.671875 28.25 49.675781 28.011719 49.675781 "/>
</g>
<g clip-path="url(#clip4)" clip-rule="nonzero">
<path style=" stroke:none;fill-rule:nonzero;fill:rgb(18.03894%,18.429565%,32.548523%);fill-opacity:1;" d="M 34.417969 0.257812 C 34.191406 0.257812 33.960938 0.261719 33.734375 0.273438 C 27.203125 0.605469 21.957031 5.652344 21.257812 12.011719 C 20.910156 11.976562 20.5625 11.960938 20.214844 11.960938 C 20.03125 11.960938 19.84375 11.964844 19.660156 11.972656 C 16.816406 12.117188 14.199219 13.359375 12.289062 15.472656 C 10.378906 17.582031 9.40625 20.308594 9.554688 23.148438 L 9.554688 23.164062 C 7.148438 23.542969 4.96875 24.722656 3.320312 26.542969 C 1.410156 28.65625 0.441406 31.382812 0.585938 34.222656 C 0.875 39.890625 5.550781 44.328125 11.230469 44.328125 C 11.414062 44.328125 11.597656 44.324219 11.78125 44.3125 C 13.125 44.242188 14.449219 43.921875 15.664062 43.367188 C 18.296875 47.640625 22.929688 50.246094 28.011719 50.246094 C 28.257812 50.246094 28.515625 50.242188 28.761719 50.230469 C 31.75 50.078125 34.632812 48.996094 36.972656 47.164062 C 38.855469 48.652344 41.164062 49.460938 43.582031 49.460938 C 43.765625 49.460938 43.949219 49.453125 44.132812 49.445312 C 47.457031 49.277344 50.496094 47.554688 52.367188 44.863281 C 55.257812 47.207031 58.835938 48.484375 62.589844 48.484375 C 62.867188 48.484375 63.152344 48.476562 63.429688 48.460938 C 72.378906 48.007812 79.289062 40.367188 78.832031 31.433594 C 78.621094 27.308594 76.867188 23.457031 73.886719 20.589844 C 71.105469 17.910156 67.5 16.320312 63.667969 16.074219 C 61.082031 10.585938 55.589844 7.078125 49.472656 7.078125 C 49.203125 7.078125 48.933594 7.085938 48.660156 7.101562 C 47.828125 7.144531 46.996094 7.25 46.179688 7.425781 C 43.925781 3.039062 39.410156 0.257812 34.417969 0.257812 Z M 34.417969 1.398438 C 39.371094 1.398438 43.691406 4.40625 45.539062 8.753906 C 46.558594 8.472656 47.621094 8.296875 48.71875 8.242188 C 48.972656 8.226562 49.226562 8.222656 49.472656 8.222656 C 55.480469 8.222656 60.710938 11.886719 62.910156 17.183594 C 70.765625 17.339844 77.28125 23.535156 77.6875 31.488281 C 78.113281 39.808594 71.703125 46.894531 63.371094 47.320312 C 63.109375 47.335938 62.847656 47.339844 62.589844 47.339844 C 58.535156 47.339844 54.820312 45.730469 52.09375 43.097656 C 50.601562 46.039062 47.613281 48.125 44.078125 48.304688 C 43.910156 48.316406 43.746094 48.316406 43.582031 48.316406 C 41.039062 48.316406 38.707031 47.308594 36.988281 45.664062 C 34.785156 47.652344 31.902344 48.925781 28.703125 49.089844 C 28.472656 49.101562 28.242188 49.105469 28.011719 49.105469 C 22.871094 49.105469 18.34375 46.183594 16.117188 41.84375 C 14.824219 42.613281 13.328125 43.089844 11.722656 43.171875 C 11.558594 43.179688 11.394531 43.183594 11.230469 43.183594 C 6.195312 43.183594 1.988281 39.246094 1.726562 34.164062 C 1.460938 28.921875 5.5 24.453125 10.753906 24.1875 C 10.773438 24.183594 10.796875 24.183594 10.816406 24.183594 C 10.753906 23.828125 10.714844 23.460938 10.695312 23.089844 C 10.429688 17.847656 14.46875 13.382812 19.722656 13.117188 C 19.886719 13.105469 20.050781 13.101562 20.214844 13.101562 C 20.9375 13.101562 21.644531 13.179688 22.320312 13.335938 C 22.382812 7.007812 27.375 1.742188 33.792969 1.414062 C 34.003906 1.402344 34.207031 1.398438 34.417969 1.398438 "/>
</g>
<path style="fill-rule:nonzero;fill:rgb(100%,100%,100%);fill-opacity:1;stroke-width:40;stroke-linecap:round;stroke-linejoin:round;stroke:rgb(18.03894%,18.429565%,32.548523%);stroke-opacity:1;stroke-miterlimit:10;" d="M 2599.746956 2044.251133 C 2599.746956 2251.124219 2767.322902 2418.729729 2974.095504 2418.729729 " transform="matrix(0.0286018,0,0,-0.0285501,-21.095647,85.949538)"/>
<path style="fill-rule:nonzero;fill:rgb(100%,100%,100%);fill-opacity:1;stroke-width:40;stroke-linecap:round;stroke-linejoin:round;stroke:rgb(18.03894%,18.429565%,32.548523%);stroke-opacity:1;stroke-miterlimit:10;" d="M 2024.635048 2608.08975 C 2170.905495 2754.351211 2407.860888 2754.351211 2554.267909 2608.226571 " transform="matrix(0.0286018,0,0,-0.0285501,-21.095647,85.949538)"/>
<path style="fill:none;stroke-width:40;stroke-linecap:round;stroke-linejoin:round;stroke:rgb(18.03894%,18.429565%,32.548523%);stroke-opacity:1;stroke-miterlimit:10;" d="M 1497.050793 2047.671654 C 1352.009509 1976.388004 1176.785434 2036.041884 1105.493956 2181.071957 " transform="matrix(0.0286018,0,0,-0.0285501,-21.095647,85.949538)"/>
<path style="fill:none;stroke-width:40;stroke-linecap:round;stroke-linejoin:round;stroke:rgb(18.03894%,18.429565%,32.548523%);stroke-opacity:1;stroke-miterlimit:10;" d="M 1527.09701 1821.780473 C 1455.805531 1966.810547 1515.488244 2141.941202 1660.529528 2213.361672 " transform="matrix(0.0286018,0,0,-0.0285501,-21.095647,85.949538)"/>
</g>
<mask id="mask1">
  <g filter="url(#alpha)">
<rect x="0" y="0" width="1125" height="525.000007" style="fill:rgb(0%,0%,0%);fill-opacity:0.498;stroke:none;"/>
  </g>
</mask>
<clipPath id="clip6">
  <path d="M 0.269531 0.46875 L 79 0.46875 L 79 50.460938 L 0.269531 50.460938 Z M 0.269531 0.46875 "/>
</clipPath>
<clipPath id="clip5">
  <rect x="0" y="0" width="81" height="52"/>
</clipPath>
<g id="surface8" clip-path="url(#clip5)">
<path style=" stroke:none;fill-rule:nonzero;fill:rgb(100%,100%,100%);fill-opacity:1;" d="M 27.992188 49.875 C 22.941406 49.875 18.347656 47.1875 15.867188 42.824219 C 14.589844 43.484375 13.175781 43.867188 11.734375 43.941406 C 11.558594 43.953125 11.386719 43.953125 11.210938 43.953125 C 5.835938 43.953125 1.414062 39.753906 1.136719 34.390625 C 1 31.703125 1.917969 29.121094 3.726562 27.125 C 5.40625 25.265625 7.667969 24.117188 10.148438 23.859375 C 10.128906 23.679688 10.117188 23.5 10.105469 23.316406 C 9.96875 20.632812 10.886719 18.050781 12.695312 16.050781 C 14.503906 14.054688 16.980469 12.878906 19.675781 12.742188 C 19.847656 12.730469 20.019531 12.730469 20.195312 12.730469 C 20.71875 12.730469 21.242188 12.769531 21.757812 12.847656 C 22.160156 6.496094 27.300781 1.367188 33.742188 1.042969 C 33.964844 1.03125 34.179688 1.027344 34.398438 1.027344 C 39.324219 1.027344 43.761719 3.855469 45.84375 8.28125 C 46.769531 8.054688 47.722656 7.917969 48.671875 7.871094 C 48.929688 7.855469 49.195312 7.851562 49.453125 7.851562 C 55.464844 7.851562 60.847656 11.359375 63.273438 16.824219 C 71.289062 17.167969 77.828125 23.617188 78.242188 31.660156 C 78.679688 40.28125 72.015625 47.652344 63.378906 48.089844 C 63.113281 48.105469 62.835938 48.109375 62.570312 48.109375 C 58.734375 48.109375 55.089844 46.730469 52.21875 44.207031 C 50.5 47.058594 47.445312 48.902344 44.085938 49.074219 C 43.910156 49.085938 43.738281 49.085938 43.5625 49.085938 C 41.121094 49.085938 38.796875 48.21875 36.960938 46.625 C 34.648438 48.558594 31.738281 49.703125 28.714844 49.859375 C 28.472656 49.871094 28.230469 49.875 27.992188 49.875 "/>
<g clip-path="url(#clip6)" clip-rule="nonzero">
<path style=" stroke:none;fill-rule:nonzero;fill:rgb(18.03894%,18.429565%,32.548523%);fill-opacity:1;" d="M 34.398438 0.457031 C 34.171875 0.457031 33.941406 0.460938 33.714844 0.472656 C 27.183594 0.804688 21.9375 5.851562 21.238281 12.210938 C 20.890625 12.175781 20.542969 12.15625 20.195312 12.15625 C 20.011719 12.15625 19.824219 12.164062 19.640625 12.171875 C 16.796875 12.316406 14.179688 13.558594 12.269531 15.667969 C 10.359375 17.78125 9.390625 20.507812 9.535156 23.347656 L 9.535156 23.363281 C 7.128906 23.742188 4.949219 24.917969 3.300781 26.742188 C 1.390625 28.855469 0.421875 31.582031 0.566406 34.421875 C 0.855469 40.089844 5.53125 44.523438 11.210938 44.523438 C 11.394531 44.523438 11.578125 44.523438 11.761719 44.511719 C 13.105469 44.441406 14.429688 44.121094 15.644531 43.566406 C 18.277344 47.839844 22.910156 50.445312 27.992188 50.445312 C 28.238281 50.445312 28.496094 50.441406 28.742188 50.429688 C 31.734375 50.273438 34.613281 49.195312 36.957031 47.363281 C 38.835938 48.851562 41.144531 49.660156 43.5625 49.660156 C 43.746094 49.660156 43.929688 49.652344 44.113281 49.644531 C 47.4375 49.476562 50.476562 47.753906 52.347656 45.0625 C 55.238281 47.40625 58.816406 48.683594 62.570312 48.683594 C 62.847656 48.683594 63.132812 48.675781 63.410156 48.660156 C 72.359375 48.207031 79.269531 40.566406 78.8125 31.632812 C 78.601562 27.507812 76.847656 23.65625 73.867188 20.789062 C 71.085938 18.109375 67.480469 16.519531 63.648438 16.273438 C 61.0625 10.785156 55.570312 7.277344 49.453125 7.277344 C 49.183594 7.277344 48.914062 7.285156 48.640625 7.296875 C 47.808594 7.339844 46.976562 7.449219 46.160156 7.625 C 43.90625 3.238281 39.390625 0.457031 34.398438 0.457031 Z M 34.398438 1.597656 C 39.351562 1.597656 43.671875 4.605469 45.519531 8.953125 C 46.539062 8.671875 47.601562 8.496094 48.699219 8.441406 C 48.953125 8.425781 49.207031 8.421875 49.453125 8.421875 C 55.460938 8.421875 60.691406 12.085938 62.890625 17.382812 C 70.75 17.535156 77.261719 23.734375 77.667969 31.6875 C 78.09375 40.007812 71.683594 47.09375 63.351562 47.519531 C 63.089844 47.535156 62.828125 47.539062 62.570312 47.539062 C 58.515625 47.539062 54.800781 45.929688 52.074219 43.292969 C 50.582031 46.238281 47.59375 48.324219 44.058594 48.503906 C 43.890625 48.515625 43.726562 48.515625 43.5625 48.515625 C 41.019531 48.515625 38.6875 47.507812 36.96875 45.863281 C 34.765625 47.851562 31.882812 49.125 28.683594 49.289062 C 28.453125 49.300781 28.222656 49.304688 27.992188 49.304688 C 22.851562 49.304688 18.324219 46.382812 16.097656 42.042969 C 14.804688 42.8125 13.308594 43.289062 11.703125 43.371094 C 11.539062 43.378906 11.375 43.382812 11.210938 43.382812 C 6.175781 43.382812 1.96875 39.445312 1.707031 34.363281 C 1.441406 29.121094 5.480469 24.652344 10.734375 24.386719 C 10.757812 24.382812 10.777344 24.382812 10.796875 24.382812 C 10.734375 24.027344 10.695312 23.660156 10.675781 23.289062 C 10.410156 18.046875 14.449219 13.578125 19.703125 13.3125 C 19.867188 13.304688 20.03125 13.300781 20.195312 13.300781 C 20.917969 13.300781 21.625 13.378906 22.300781 13.535156 C 22.367188 7.207031 27.355469 1.941406 33.773438 1.613281 C 33.984375 1.601562 34.1875 1.597656 34.398438 1.597656 "/>
</g>
<path style="fill-rule:nonzero;fill:rgb(100%,100%,100%);fill-opacity:1;stroke-width:40;stroke-linecap:round;stroke-linejoin:round;stroke:rgb(18.03894%,18.429565%,32.548523%);stroke-opacity:1;stroke-miterlimit:10;" d="M 2599.740796 2044.241679 C 2599.740796 2251.114765 2767.316743 2418.720275 2974.089345 2418.720275 " transform="matrix(0.0286018,0,0,-0.0285501,-21.115002,86.148487)"/>
<path style="fill-rule:nonzero;fill:rgb(100%,100%,100%);fill-opacity:1;stroke-width:40;stroke-linecap:round;stroke-linejoin:round;stroke:rgb(18.03894%,18.429565%,32.548523%);stroke-opacity:1;stroke-miterlimit:10;" d="M 2024.628889 2608.080296 C 2170.899336 2754.341757 2407.854729 2754.341757 2554.26175 2608.217116 " transform="matrix(0.0286018,0,0,-0.0285501,-21.115002,86.148487)"/>
<path style="fill:none;stroke-width:40;stroke-linecap:round;stroke-linejoin:round;stroke:rgb(18.03894%,18.429565%,32.548523%);stroke-opacity:1;stroke-miterlimit:10;" d="M 1497.044633 2047.6622 C 1352.00335 1976.37855 1176.779275 2036.03243 1105.487797 2181.062503 " transform="matrix(0.0286018,0,0,-0.0285501,-21.115002,86.148487)"/>
<path style="fill:none;stroke-width:40;stroke-linecap:round;stroke-linejoin:round;stroke:rgb(18.03894%,18.429565%,32.548523%);stroke-opacity:1;stroke-miterlimit:10;" d="M 1527.09085 1821.771019 C 1455.799372 1966.801093 1515.482085 2141.931748 1660.523368 2213.352218 " transform="matrix(0.0286018,0,0,-0.0285501,-21.115002,86.148487)"/>
</g>
<mask id="mask2">
  <g filter="url(#alpha)">
<rect x="0" y="0" width="1125" height="525.000007" style="fill:rgb(0%,0%,0%);fill-opacity:0.498;stroke:none;"/>
  </g>
</mask>
<clipPath id="clip8">
  <path d="M 1.039062 1.148438 L 80 1.148438 L 80 51 L 1.039062 51 Z M 1.039062 1.148438 "/>
</clipPath>
<clipPath id="clip9">
  <path d="M 1.039062 1.148438 L 80 1.148438 L 80 51.136719 L 1.039062 51.136719 Z M 1.039062 1.148438 "/>
</clipPath>
<clipPath id="clip7">
  <rect x="0" y="0" width="82" height="53"/>
</clipPath>
<g id="surface11" clip-path="url(#clip7)">
<g clip-path="url(#clip8)" clip-rule="nonzero">
<path style=" stroke:none;fill-rule:nonzero;fill:rgb(100%,100%,100%);fill-opacity:1;" d="M 28.761719 50.554688 C 23.710938 50.554688 19.117188 47.867188 16.636719 43.5 C 15.359375 44.160156 13.945312 44.546875 12.503906 44.621094 C 12.328125 44.628906 12.15625 44.632812 11.980469 44.632812 C 6.605469 44.632812 2.183594 40.433594 1.90625 35.066406 C 1.769531 32.378906 2.6875 29.800781 4.496094 27.804688 C 6.175781 25.941406 8.4375 24.792969 10.917969 24.535156 C 10.898438 24.355469 10.882812 24.175781 10.875 23.996094 C 10.738281 21.308594 11.65625 18.726562 13.464844 16.730469 C 15.273438 14.730469 17.75 13.558594 20.445312 13.421875 C 20.617188 13.410156 20.789062 13.40625 20.964844 13.40625 C 21.488281 13.40625 22.011719 13.445312 22.527344 13.527344 C 22.929688 7.171875 28.070312 2.046875 34.511719 1.71875 C 34.734375 1.710938 34.949219 1.703125 35.167969 1.703125 C 40.09375 1.703125 44.53125 4.53125 46.613281 8.957031 C 47.539062 8.734375 48.492188 8.59375 49.441406 8.546875 C 49.699219 8.53125 49.964844 8.527344 50.222656 8.527344 C 56.234375 8.527344 61.617188 12.035156 64.042969 17.5 C 72.058594 17.847656 78.597656 24.296875 79.011719 32.335938 C 79.449219 40.957031 72.785156 48.328125 64.148438 48.769531 C 63.882812 48.78125 63.605469 48.789062 63.339844 48.789062 C 59.503906 48.789062 55.859375 47.40625 52.988281 44.882812 C 51.265625 47.738281 48.214844 49.578125 44.855469 49.75 C 44.679688 49.761719 44.507812 49.765625 44.332031 49.765625 C 41.890625 49.765625 39.566406 48.894531 37.730469 47.304688 C 35.417969 49.238281 32.507812 50.382812 29.484375 50.535156 C 29.242188 50.546875 29 50.554688 28.761719 50.554688 "/>
</g>
<g clip-path="url(#clip9)" clip-rule="nonzero">
<path style=" stroke:none;fill-rule:nonzero;fill:rgb(18.03894%,18.429565%,32.548523%);fill-opacity:1;" d="M 35.167969 1.132812 C 34.941406 1.132812 34.710938 1.136719 34.484375 1.148438 C 27.953125 1.480469 22.707031 6.527344 22.007812 12.886719 C 21.660156 12.851562 21.3125 12.835938 20.964844 12.835938 C 20.78125 12.835938 20.59375 12.839844 20.410156 12.847656 C 17.566406 12.996094 14.949219 14.238281 13.039062 16.347656 C 11.128906 18.457031 10.160156 21.1875 10.304688 24.023438 L 10.304688 24.042969 C 7.898438 24.421875 5.71875 25.597656 4.070312 27.417969 C 2.160156 29.53125 1.191406 32.257812 1.335938 35.097656 C 1.625 40.765625 6.300781 45.203125 11.980469 45.203125 C 12.164062 45.203125 12.347656 45.199219 12.53125 45.1875 C 13.875 45.121094 15.199219 44.796875 16.414062 44.242188 C 19.046875 48.515625 23.679688 51.125 28.761719 51.125 C 29.007812 51.125 29.265625 51.117188 29.511719 51.105469 C 32.503906 50.953125 35.382812 49.875 37.726562 48.039062 C 39.605469 49.527344 41.914062 50.335938 44.332031 50.335938 C 44.515625 50.335938 44.699219 50.332031 44.882812 50.320312 C 48.207031 50.152344 51.246094 48.429688 53.117188 45.738281 C 56.007812 48.082031 59.585938 49.359375 63.339844 49.359375 C 63.617188 49.359375 63.902344 49.355469 64.179688 49.335938 C 73.128906 48.882812 80.039062 41.242188 79.582031 32.308594 C 79.371094 28.183594 77.617188 24.332031 74.636719 21.464844 C 71.855469 18.785156 68.25 17.195312 64.417969 16.949219 C 61.832031 11.460938 56.339844 7.957031 50.222656 7.957031 C 49.953125 7.957031 49.683594 7.960938 49.410156 7.976562 C 48.578125 8.019531 47.746094 8.128906 46.929688 8.300781 C 44.675781 3.917969 40.160156 1.132812 35.167969 1.132812 Z M 35.167969 2.273438 C 40.121094 2.273438 44.441406 5.28125 46.289062 9.632812 C 47.308594 9.347656 48.371094 9.171875 49.46875 9.117188 C 49.722656 9.105469 49.976562 9.097656 50.222656 9.097656 C 56.230469 9.097656 61.460938 12.765625 63.660156 18.058594 C 71.519531 18.214844 78.03125 24.414062 78.4375 32.367188 C 78.863281 40.6875 72.453125 47.773438 64.121094 48.199219 C 63.859375 48.210938 63.597656 48.21875 63.339844 48.21875 C 59.285156 48.21875 55.570312 46.605469 52.84375 43.972656 C 51.351562 46.914062 48.363281 49 44.828125 49.179688 C 44.660156 49.191406 44.496094 49.195312 44.332031 49.195312 C 41.789062 49.195312 39.457031 48.1875 37.738281 46.539062 C 35.535156 48.527344 32.652344 49.800781 29.453125 49.964844 C 29.222656 49.976562 28.992188 49.980469 28.761719 49.980469 C 23.621094 49.980469 19.09375 47.058594 16.867188 42.722656 C 15.574219 43.488281 14.078125 43.964844 12.472656 44.050781 C 12.308594 44.058594 12.144531 44.058594 11.980469 44.058594 C 6.945312 44.058594 2.738281 40.121094 2.476562 35.039062 C 2.210938 29.796875 6.25 25.328125 11.503906 25.0625 C 11.527344 25.058594 11.546875 25.058594 11.566406 25.058594 C 11.503906 24.703125 11.464844 24.339844 11.445312 23.96875 C 11.179688 18.726562 15.21875 14.257812 20.472656 13.992188 C 20.636719 13.980469 20.800781 13.976562 20.964844 13.976562 C 21.6875 13.976562 22.394531 14.058594 23.070312 14.210938 C 23.136719 7.882812 28.125 2.617188 34.542969 2.292969 C 34.753906 2.28125 34.957031 2.273438 35.167969 2.273438 "/>
</g>
<path style="fill-rule:nonzero;fill:rgb(100%,100%,100%);fill-opacity:1;stroke-width:40;stroke-linecap:round;stroke-linejoin:round;stroke:rgb(18.03894%,18.429565%,32.548523%);stroke-opacity:1;stroke-miterlimit:10;" d="M 2599.743209 2044.292445 C 2599.743209 2251.165531 2767.319156 2418.63422 2974.091758 2418.63422 " transform="matrix(0.0286018,0,0,-0.0285501,-20.34554,86.825718)"/>
<path style="fill-rule:nonzero;fill:rgb(100%,100%,100%);fill-opacity:1;stroke-width:40;stroke-linecap:round;stroke-linejoin:round;stroke:rgb(18.03894%,18.429565%,32.548523%);stroke-opacity:1;stroke-miterlimit:10;" d="M 2024.631302 2608.131062 C 2170.901749 2754.392523 2407.857142 2754.392523 2554.264163 2608.267883 " transform="matrix(0.0286018,0,0,-0.0285501,-20.34554,86.825718)"/>
<path style="fill:none;stroke-width:40;stroke-linecap:round;stroke-linejoin:round;stroke:rgb(18.03894%,18.429565%,32.548523%);stroke-opacity:1;stroke-miterlimit:10;" d="M 1497.047046 2047.712966 C 1352.005763 1976.429316 1176.781688 2036.083196 1105.49021 2181.113269 " transform="matrix(0.0286018,0,0,-0.0285501,-20.34554,86.825718)"/>
<path style="fill:none;stroke-width:40;stroke-linecap:round;stroke-linejoin:round;stroke:rgb(18.03894%,18.429565%,32.548523%);stroke-opacity:1;stroke-miterlimit:10;" d="M 1527.093263 1821.821785 C 1455.801785 1966.851859 1515.484498 2141.982514 1660.525781 2213.266163 " transform="matrix(0.0286018,0,0,-0.0285501,-20.34554,86.825718)"/>
</g>
<mask id="mask3">
  <g filter="url(#alpha)">
<rect x="0" y="0" width="1125" height="525.000007" style="fill:rgb(0%,0%,0%);fill-opacity:0.498;stroke:none;"/>
  </g>
</mask>
<clipPath id="clip11">
  <path d="M 0.167969 0.472656 L 79 0.472656 L 79 50.464844 L 0.167969 50.464844 Z M 0.167969 0.472656 "/>
</clipPath>
<clipPath id="clip10">
  <rect x="0" y="0" width="81" height="52"/>
</clipPath>
<g id="surface14" clip-path="url(#clip10)">
<path style=" stroke:none;fill-rule:nonzero;fill:rgb(100%,100%,100%);fill-opacity:1;" d="M 27.890625 49.878906 C 22.839844 49.878906 18.246094 47.191406 15.765625 42.828125 C 14.492188 43.488281 13.074219 43.871094 11.632812 43.945312 C 11.457031 43.957031 11.285156 43.957031 11.109375 43.957031 C 5.734375 43.957031 1.3125 39.757812 1.035156 34.394531 C 0.898438 31.707031 1.816406 29.125 3.625 27.128906 C 5.304688 25.269531 7.570312 24.121094 10.046875 23.863281 C 10.027344 23.683594 10.015625 23.5 10.003906 23.320312 C 9.867188 20.636719 10.785156 18.054688 12.59375 16.054688 C 14.402344 14.058594 16.878906 12.882812 19.574219 12.746094 C 19.746094 12.734375 19.917969 12.734375 20.09375 12.734375 C 20.617188 12.734375 21.140625 12.773438 21.65625 12.851562 C 22.058594 6.5 27.199219 1.371094 33.640625 1.046875 C 33.863281 1.035156 34.078125 1.03125 34.296875 1.03125 C 39.222656 1.03125 43.660156 3.859375 45.742188 8.285156 C 46.671875 8.058594 47.621094 7.921875 48.570312 7.875 C 48.828125 7.859375 49.09375 7.851562 49.351562 7.851562 C 55.363281 7.851562 60.746094 11.363281 63.171875 16.828125 C 71.1875 17.171875 77.730469 23.621094 78.140625 31.664062 C 78.578125 40.285156 71.914062 47.65625 63.28125 48.09375 C 63.011719 48.109375 62.734375 48.113281 62.46875 48.113281 C 58.632812 48.113281 54.988281 46.734375 52.117188 44.210938 C 50.398438 47.0625 47.34375 48.90625 43.984375 49.078125 C 43.808594 49.089844 43.636719 49.089844 43.460938 49.089844 C 41.019531 49.089844 38.695312 48.21875 36.859375 46.628906 C 34.546875 48.5625 31.636719 49.707031 28.613281 49.863281 C 28.371094 49.875 28.128906 49.878906 27.890625 49.878906 "/>
<g clip-path="url(#clip11)" clip-rule="nonzero">
<path style=" stroke:none;fill-rule:nonzero;fill:rgb(18.03894%,18.429565%,32.548523%);fill-opacity:1;" d="M 34.296875 0.460938 C 34.070312 0.460938 33.839844 0.464844 33.613281 0.476562 C 27.082031 0.808594 21.835938 5.855469 21.136719 12.214844 C 20.792969 12.179688 20.441406 12.160156 20.09375 12.160156 C 19.910156 12.160156 19.722656 12.167969 19.542969 12.175781 C 16.695312 12.320312 14.078125 13.5625 12.167969 15.671875 C 10.261719 17.785156 9.289062 20.511719 9.433594 23.351562 L 9.433594 23.367188 C 7.027344 23.746094 4.851562 24.921875 3.199219 26.746094 C 1.292969 28.859375 0.320312 31.585938 0.464844 34.425781 C 0.753906 40.09375 5.429688 44.527344 11.109375 44.527344 C 11.292969 44.527344 11.480469 44.527344 11.660156 44.515625 C 13.003906 44.445312 14.328125 44.125 15.542969 43.570312 C 18.175781 47.84375 22.8125 50.449219 27.890625 50.449219 C 28.140625 50.449219 28.394531 50.445312 28.644531 50.433594 C 31.632812 50.277344 34.511719 49.199219 36.855469 47.367188 C 38.734375 48.855469 41.042969 49.664062 43.460938 49.664062 C 43.644531 49.664062 43.832031 49.65625 44.011719 49.648438 C 47.335938 49.480469 50.378906 47.757812 52.246094 45.066406 C 55.136719 47.410156 58.714844 48.6875 62.46875 48.6875 C 62.746094 48.6875 63.03125 48.679688 63.308594 48.664062 C 72.257812 48.210938 79.167969 40.570312 78.710938 31.636719 C 78.5 27.511719 76.746094 23.660156 73.769531 20.792969 C 70.984375 18.113281 67.378906 16.519531 63.546875 16.277344 C 60.960938 10.789062 55.472656 7.28125 49.351562 7.28125 C 49.085938 7.28125 48.8125 7.289062 48.539062 7.300781 C 47.707031 7.34375 46.875 7.453125 46.058594 7.628906 C 43.804688 3.242188 39.292969 0.460938 34.296875 0.460938 Z M 34.296875 1.601562 C 39.25 1.601562 43.574219 4.605469 45.421875 8.957031 C 46.4375 8.675781 47.5 8.5 48.597656 8.445312 C 48.851562 8.429688 49.105469 8.425781 49.351562 8.425781 C 55.359375 8.425781 60.589844 12.089844 62.789062 17.386719 C 70.648438 17.539062 77.160156 23.738281 77.570312 31.691406 C 77.992188 40.011719 71.582031 47.097656 63.25 47.523438 C 62.988281 47.539062 62.726562 47.542969 62.46875 47.542969 C 58.414062 47.542969 54.703125 45.933594 51.972656 43.296875 C 50.480469 46.242188 47.492188 48.324219 43.957031 48.507812 C 43.789062 48.515625 43.625 48.519531 43.460938 48.519531 C 40.917969 48.519531 38.585938 47.511719 36.867188 45.863281 C 34.664062 47.855469 31.78125 49.128906 28.582031 49.292969 C 28.351562 49.300781 28.121094 49.308594 27.890625 49.308594 C 22.75 49.308594 18.222656 46.382812 15.996094 42.046875 C 14.703125 42.816406 13.210938 43.292969 11.601562 43.375 C 11.4375 43.382812 11.273438 43.386719 11.109375 43.386719 C 6.074219 43.386719 1.867188 39.445312 1.605469 34.363281 C 1.339844 29.125 5.378906 24.65625 10.632812 24.390625 C 10.65625 24.386719 10.675781 24.386719 10.695312 24.386719 C 10.636719 24.03125 10.59375 23.664062 10.574219 23.292969 C 10.308594 18.050781 14.347656 13.582031 19.601562 13.316406 C 19.765625 13.304688 19.929688 13.304688 20.09375 13.304688 C 20.816406 13.304688 21.523438 13.382812 22.203125 13.539062 C 22.265625 7.210938 27.253906 1.945312 33.671875 1.617188 C 33.882812 1.605469 34.089844 1.601562 34.296875 1.601562 "/>
</g>
<path style="fill-rule:nonzero;fill:rgb(100%,100%,100%);fill-opacity:1;stroke-width:40;stroke-linecap:round;stroke-linejoin:round;stroke:rgb(18.03894%,18.429565%,32.548523%);stroke-opacity:1;stroke-miterlimit:10;" d="M 2599.720629 2044.235254 C 2599.720629 2251.10834 2767.296575 2418.71385 2974.069177 2418.71385 " transform="matrix(0.0286018,0,0,-0.0285501,-21.215988,86.15221)"/>
<path style="fill-rule:nonzero;fill:rgb(100%,100%,100%);fill-opacity:1;stroke-width:40;stroke-linecap:round;stroke-linejoin:round;stroke:rgb(18.03894%,18.429565%,32.548523%);stroke-opacity:1;stroke-miterlimit:10;" d="M 2024.608721 2608.073871 C 2170.879168 2754.335332 2407.834561 2754.335332 2554.241582 2608.210691 " transform="matrix(0.0286018,0,0,-0.0285501,-21.215988,86.15221)"/>
<path style="fill:none;stroke-width:40;stroke-linecap:round;stroke-linejoin:round;stroke:rgb(18.03894%,18.429565%,32.548523%);stroke-opacity:1;stroke-miterlimit:10;" d="M 1497.024466 2047.655775 C 1351.983182 1976.372125 1176.759108 2036.162825 1105.467629 2181.056078 " transform="matrix(0.0286018,0,0,-0.0285501,-21.215988,86.15221)"/>
<path style="fill:none;stroke-width:40;stroke-linecap:round;stroke-linejoin:round;stroke:rgb(18.03894%,18.429565%,32.548523%);stroke-opacity:1;stroke-miterlimit:10;" d="M 1527.070683 1821.764594 C 1455.779204 1966.794668 1515.461917 2142.062143 1660.503201 2213.345793 " transform="matrix(0.0286018,0,0,-0.0285501,-21.215988,86.15221)"/>
</g>
<mask id="mask4">
  <g filter="url(#alpha)">
<rect x="0" y="0" width="1125" height="525.000007" style="fill:rgb(0%,0%,0%);fill-opacity:0.498;stroke:none;"/>
  </g>
</mask>
<clipPath id="clip13">
  <path d="M 2 1 L 80.675781 1 L 80.675781 50 L 2 50 Z M 2 1 "/>
</clipPath>
<clipPath id="clip14">
  <path d="M 2 0.519531 L 80.675781 0.519531 L 80.675781 50.511719 L 2 50.511719 Z M 2 0.519531 "/>
</clipPath>
<clipPath id="clip12">
  <rect x="0" y="0" width="81" height="52"/>
</clipPath>
<g id="surface17" clip-path="url(#clip12)">
<g clip-path="url(#clip13)" clip-rule="nonzero">
<path style=" stroke:none;fill-rule:nonzero;fill:rgb(100%,100%,100%);fill-opacity:1;" d="M 53.140625 49.925781 C 58.191406 49.925781 62.785156 47.242188 65.261719 42.875 C 66.539062 43.535156 67.953125 43.921875 69.394531 43.996094 C 69.574219 44.003906 69.746094 44.007812 69.917969 44.007812 C 75.292969 44.007812 79.71875 39.804688 79.992188 34.441406 C 80.128906 31.753906 79.210938 29.175781 77.402344 27.179688 C 75.722656 25.316406 73.460938 24.167969 70.984375 23.910156 C 71 23.730469 71.015625 23.550781 71.023438 23.371094 C 71.160156 20.683594 70.242188 18.101562 68.433594 16.105469 C 66.628906 14.105469 64.152344 12.933594 61.457031 12.792969 C 61.28125 12.785156 61.109375 12.78125 60.9375 12.78125 C 60.414062 12.78125 59.890625 12.820312 59.375 12.902344 C 58.972656 6.546875 53.832031 1.421875 47.386719 1.09375 C 47.167969 1.082031 46.949219 1.078125 46.730469 1.078125 C 41.808594 1.078125 37.367188 3.90625 35.285156 8.332031 C 34.359375 8.105469 33.410156 7.96875 32.460938 7.921875 C 32.199219 7.90625 31.9375 7.902344 31.675781 7.902344 C 25.667969 7.902344 20.285156 11.410156 17.855469 16.875 C 9.839844 17.21875 3.300781 23.667969 2.886719 31.710938 C 2.449219 40.332031 9.113281 47.703125 17.75 48.144531 C 18.019531 48.15625 18.292969 48.164062 18.558594 48.164062 C 22.394531 48.164062 26.042969 46.78125 28.910156 44.257812 C 30.632812 47.113281 33.6875 48.953125 37.042969 49.125 C 37.21875 49.136719 37.394531 49.140625 37.566406 49.140625 C 40.007812 49.140625 42.332031 48.269531 44.167969 46.679688 C 46.484375 48.609375 49.390625 49.753906 52.414062 49.910156 C 52.660156 49.921875 52.898438 49.925781 53.140625 49.925781 "/>
</g>
<g clip-path="url(#clip14)" clip-rule="nonzero">
<path style=" stroke:none;fill-rule:nonzero;fill:rgb(18.03894%,18.429565%,32.548523%);fill-opacity:1;" d="M 46.730469 0.507812 C 46.957031 0.507812 47.191406 0.511719 47.414062 0.523438 C 53.945312 0.855469 59.195312 5.902344 59.890625 12.261719 C 60.238281 12.226562 60.585938 12.210938 60.9375 12.210938 C 61.117188 12.210938 61.304688 12.214844 61.488281 12.222656 C 64.332031 12.371094 66.949219 13.613281 68.863281 15.722656 C 70.769531 17.832031 71.742188 20.558594 71.59375 23.398438 L 71.59375 23.414062 C 74 23.796875 76.179688 24.972656 77.828125 26.792969 C 79.738281 28.90625 80.710938 31.632812 80.566406 34.472656 C 80.273438 40.140625 75.597656 44.578125 69.917969 44.578125 C 69.738281 44.578125 69.550781 44.574219 69.367188 44.5625 C 68.027344 44.492188 66.703125 44.171875 65.488281 43.617188 C 62.851562 47.890625 58.21875 50.5 53.140625 50.5 C 52.890625 50.5 52.636719 50.492188 52.386719 50.480469 C 49.398438 50.328125 46.519531 49.246094 44.175781 47.414062 C 42.296875 48.902344 39.984375 49.710938 37.566406 49.710938 C 37.386719 49.710938 37.199219 49.703125 37.015625 49.695312 C 33.691406 49.527344 30.652344 47.804688 28.78125 45.113281 C 25.894531 47.457031 22.316406 48.734375 18.558594 48.734375 C 18.28125 48.734375 18 48.726562 17.722656 48.710938 C 8.773438 48.257812 1.863281 40.617188 2.320312 31.683594 C 2.527344 27.558594 4.285156 23.707031 7.261719 20.839844 C 10.042969 18.160156 13.652344 16.570312 17.480469 16.324219 C 20.066406 10.835938 25.558594 7.332031 31.675781 7.332031 C 31.945312 7.332031 32.214844 7.335938 32.488281 7.351562 C 33.320312 7.394531 34.152344 7.5 34.972656 7.675781 C 37.226562 3.289062 41.738281 0.507812 46.730469 0.507812 Z M 46.730469 1.648438 C 41.777344 1.648438 37.457031 4.65625 35.609375 9.007812 C 34.589844 8.722656 33.53125 8.546875 32.429688 8.492188 C 32.175781 8.476562 31.925781 8.472656 31.675781 8.472656 C 25.667969 8.472656 20.4375 12.136719 18.238281 17.433594 C 10.382812 17.589844 3.871094 23.785156 3.460938 31.742188 C 3.039062 40.058594 9.445312 47.144531 17.777344 47.570312 C 18.042969 47.585938 18.300781 47.589844 18.558594 47.589844 C 22.613281 47.589844 26.328125 45.980469 29.054688 43.347656 C 30.550781 46.289062 33.535156 48.375 37.074219 48.554688 C 37.238281 48.566406 37.40625 48.566406 37.566406 48.566406 C 40.109375 48.566406 42.441406 47.558594 44.160156 45.914062 C 46.367188 47.902344 49.246094 49.175781 52.445312 49.339844 C 52.679688 49.351562 52.90625 49.355469 53.140625 49.355469 C 58.277344 49.355469 62.804688 46.433594 65.035156 42.097656 C 66.324219 42.863281 67.820312 43.339844 69.425781 43.421875 C 69.589844 43.433594 69.757812 43.433594 69.917969 43.433594 C 74.957031 43.433594 79.160156 39.496094 79.421875 34.414062 C 79.691406 29.171875 75.648438 24.703125 70.398438 24.4375 C 70.375 24.433594 70.355469 24.433594 70.335938 24.433594 C 70.394531 24.078125 70.433594 23.710938 70.453125 23.339844 C 70.71875 18.097656 66.683594 13.632812 61.429688 13.367188 C 61.261719 13.355469 61.097656 13.351562 60.9375 13.351562 C 60.210938 13.351562 59.503906 13.429688 58.828125 13.585938 C 58.765625 7.257812 53.773438 1.992188 47.359375 1.667969 C 47.148438 1.65625 46.941406 1.648438 46.730469 1.648438 "/>
</g>
<path style="fill-rule:nonzero;fill:rgb(100%,100%,100%);fill-opacity:1;stroke-width:40;stroke-linecap:round;stroke-linejoin:round;stroke:rgb(18.03894%,18.429565%,32.548523%);stroke-opacity:1;stroke-miterlimit:10;" d="M 2599.654871 2044.270422 C 2599.654871 2251.143508 2767.367392 2418.749018 2974.139994 2418.749018 " transform="matrix(-0.0286018,0,0,-0.0285501,102.245357,86.200089)"/>
<path style="fill-rule:nonzero;fill:rgb(100%,100%,100%);fill-opacity:1;stroke-width:40;stroke-linecap:round;stroke-linejoin:round;stroke:rgb(18.03894%,18.429565%,32.548523%);stroke-opacity:1;stroke-miterlimit:10;" d="M 2024.542964 2608.109038 C 2170.949985 2754.370499 2407.905378 2754.370499 2554.175825 2608.245859 " transform="matrix(-0.0286018,0,0,-0.0285501,102.245357,86.200089)"/>
<path style="fill:none;stroke-width:40;stroke-linecap:round;stroke-linejoin:round;stroke:rgb(18.03894%,18.429565%,32.548523%);stroke-opacity:1;stroke-miterlimit:10;" d="M 1496.958708 2047.690942 C 1352.053998 1976.407293 1176.829924 2036.061172 1105.538445 2181.091246 " transform="matrix(-0.0286018,0,0,-0.0285501,102.245357,86.200089)"/>
<path style="fill:none;stroke-width:40;stroke-linecap:round;stroke-linejoin:round;stroke:rgb(18.03894%,18.429565%,32.548523%);stroke-opacity:1;stroke-miterlimit:10;" d="M 1527.141499 1821.799762 C 1455.850021 1966.829835 1515.532733 2141.96049 1660.437443 2213.24414 " transform="matrix(-0.0286018,0,0,-0.0285501,102.245357,86.200089)"/>
</g>
<mask id="mask5">
  <g filter="url(#alpha)">
<rect x="0" y="0" width="1125" height="525.000007" style="fill:rgb(0%,0%,0%);fill-opacity:0.498;stroke:none;"/>
  </g>
</mask>
<clipPath id="clip16">
  <path d="M 1 0.367188 L 79 0.367188 L 79 50 L 1 50 Z M 1 0.367188 "/>
</clipPath>
<clipPath id="clip17">
  <path d="M 1 0.367188 L 80 0.367188 L 80 50.359375 L 1 50.359375 Z M 1 0.367188 "/>
</clipPath>
<clipPath id="clip15">
  <rect x="0" y="0" width="82" height="52"/>
</clipPath>
<g id="surface20" clip-path="url(#clip15)">
<g clip-path="url(#clip16)" clip-rule="nonzero">
<path style=" stroke:none;fill-rule:nonzero;fill:rgb(100%,100%,100%);fill-opacity:1;" d="M 28.660156 49.773438 C 23.609375 49.773438 19.015625 47.089844 16.535156 42.722656 C 15.261719 43.382812 13.84375 43.769531 12.402344 43.84375 C 12.226562 43.851562 12.054688 43.855469 11.878906 43.855469 C 6.503906 43.855469 2.082031 39.652344 1.804688 34.289062 C 1.667969 31.601562 2.585938 29.023438 4.394531 27.027344 C 6.078125 25.164062 8.339844 24.015625 10.816406 23.757812 C 10.796875 23.578125 10.785156 23.398438 10.777344 23.21875 C 10.636719 20.53125 11.554688 17.949219 13.363281 15.953125 C 15.171875 13.953125 17.648438 12.78125 20.34375 12.644531 C 20.515625 12.632812 20.6875 12.628906 20.863281 12.628906 C 21.386719 12.628906 21.910156 12.667969 22.425781 12.75 C 22.828125 6.394531 27.96875 1.269531 34.414062 0.941406 C 34.632812 0.929688 34.851562 0.925781 35.066406 0.925781 C 39.992188 0.925781 44.429688 3.753906 46.511719 8.179688 C 47.441406 7.953125 48.390625 7.816406 49.339844 7.769531 C 49.601562 7.753906 49.863281 7.75 50.125 7.75 C 56.132812 7.75 61.515625 11.257812 63.945312 16.722656 C 71.957031 17.066406 78.5 23.515625 78.910156 31.558594 C 79.347656 40.179688 72.683594 47.550781 64.050781 47.992188 C 63.78125 48.003906 63.507812 48.011719 63.238281 48.011719 C 59.40625 48.011719 55.757812 46.628906 52.890625 44.105469 C 51.167969 46.960938 48.113281 48.800781 44.753906 48.972656 C 44.582031 48.984375 44.40625 48.988281 44.230469 48.988281 C 41.792969 48.988281 39.464844 48.117188 37.628906 46.527344 C 35.316406 48.457031 32.40625 49.605469 29.382812 49.757812 C 29.140625 49.769531 28.902344 49.773438 28.660156 49.773438 "/>
</g>
<g clip-path="url(#clip17)" clip-rule="nonzero">
<path style=" stroke:none;fill-rule:nonzero;fill:rgb(18.03894%,18.429565%,32.548523%);fill-opacity:1;" d="M 35.066406 0.355469 C 34.839844 0.355469 34.609375 0.359375 34.382812 0.371094 C 27.855469 0.703125 22.605469 5.75 21.90625 12.109375 C 21.5625 12.074219 21.210938 12.058594 20.863281 12.058594 C 20.679688 12.058594 20.496094 12.0625 20.3125 12.070312 C 17.464844 12.21875 14.847656 13.460938 12.9375 15.570312 C 11.03125 17.679688 10.058594 20.410156 10.203125 23.246094 L 10.203125 23.261719 C 7.796875 23.644531 5.621094 24.820312 3.96875 26.640625 C 2.0625 28.753906 1.089844 31.480469 1.234375 34.320312 C 1.523438 39.988281 6.199219 44.425781 11.878906 44.425781 C 12.0625 44.425781 12.25 44.421875 12.433594 44.410156 C 13.773438 44.34375 15.097656 44.019531 16.3125 43.464844 C 18.945312 47.738281 23.582031 50.347656 28.660156 50.347656 C 28.910156 50.347656 29.164062 50.339844 29.414062 50.328125 C 32.402344 50.175781 35.28125 49.09375 37.625 47.261719 C 39.503906 48.75 41.8125 49.558594 44.230469 49.558594 C 44.414062 49.558594 44.601562 49.550781 44.785156 49.542969 C 48.105469 49.375 51.148438 47.652344 53.019531 44.960938 C 55.90625 47.304688 59.484375 48.582031 63.238281 48.582031 C 63.515625 48.582031 63.800781 48.574219 64.078125 48.558594 C 73.027344 48.105469 79.9375 40.464844 79.480469 31.53125 C 79.269531 27.40625 77.515625 23.554688 74.539062 20.6875 C 71.753906 18.007812 68.148438 16.417969 64.316406 16.171875 C 61.734375 10.683594 56.242188 7.179688 50.125 7.179688 C 49.855469 7.179688 49.582031 7.183594 49.3125 7.199219 C 48.480469 7.242188 47.644531 7.351562 46.828125 7.523438 C 44.574219 3.136719 40.0625 0.355469 35.066406 0.355469 Z M 35.066406 1.496094 C 40.019531 1.496094 44.34375 4.503906 46.191406 8.855469 C 47.207031 8.570312 48.269531 8.394531 49.367188 8.339844 C 49.621094 8.324219 49.875 8.320312 50.125 8.320312 C 56.128906 8.320312 61.359375 11.984375 63.558594 17.28125 C 71.417969 17.4375 77.929688 23.632812 78.339844 31.589844 C 78.761719 39.90625 72.351562 46.996094 64.019531 47.417969 C 63.757812 47.433594 63.496094 47.441406 63.238281 47.441406 C 59.183594 47.441406 55.472656 45.828125 52.742188 43.195312 C 51.25 46.136719 48.265625 48.222656 44.726562 48.402344 C 44.558594 48.414062 44.394531 48.417969 44.230469 48.417969 C 41.6875 48.417969 39.359375 47.410156 37.636719 45.761719 C 35.433594 47.75 32.554688 49.023438 29.351562 49.1875 C 29.121094 49.199219 28.890625 49.203125 28.660156 49.203125 C 23.519531 49.203125 18.992188 46.28125 16.765625 41.945312 C 15.476562 42.710938 13.980469 43.1875 12.371094 43.269531 C 12.207031 43.28125 12.042969 43.28125 11.878906 43.28125 C 6.84375 43.28125 2.636719 39.34375 2.378906 34.261719 C 2.109375 29.019531 6.148438 24.550781 11.402344 24.285156 C 11.425781 24.28125 11.445312 24.28125 11.464844 24.28125 C 11.40625 23.925781 11.363281 23.558594 11.34375 23.1875 C 11.078125 17.949219 15.117188 13.480469 20.371094 13.214844 C 20.539062 13.203125 20.699219 13.199219 20.863281 13.199219 C 21.585938 13.199219 22.292969 13.28125 22.972656 13.433594 C 23.035156 7.105469 28.027344 1.839844 34.441406 1.515625 C 34.652344 1.503906 34.859375 1.496094 35.066406 1.496094 "/>
</g>
<path style="fill-rule:nonzero;fill:rgb(100%,100%,100%);fill-opacity:1;stroke-width:40;stroke-linecap:round;stroke-linejoin:round;stroke:rgb(18.03894%,18.429565%,32.548523%);stroke-opacity:1;stroke-miterlimit:10;" d="M 2599.704054 2044.278532 C 2599.704054 2251.151618 2767.280001 2418.757128 2974.052603 2418.757128 " transform="matrix(0.0286018,0,0,-0.0285501,-20.445982,86.047977)"/>
<path style="fill-rule:nonzero;fill:rgb(100%,100%,100%);fill-opacity:1;stroke-width:40;stroke-linecap:round;stroke-linejoin:round;stroke:rgb(18.03894%,18.429565%,32.548523%);stroke-opacity:1;stroke-miterlimit:10;" d="M 2024.592147 2608.117149 C 2170.862594 2754.37861 2407.954561 2754.37861 2554.225008 2608.253969 " transform="matrix(0.0286018,0,0,-0.0285501,-20.445982,86.047977)"/>
<path style="fill:none;stroke-width:40;stroke-linecap:round;stroke-linejoin:round;stroke:rgb(18.03894%,18.429565%,32.548523%);stroke-opacity:1;stroke-miterlimit:10;" d="M 1497.007891 2047.699053 C 1351.966608 1976.415403 1176.742533 2036.069283 1105.451055 2181.099356 " transform="matrix(0.0286018,0,0,-0.0285501,-20.445982,86.047977)"/>
<path style="fill:none;stroke-width:40;stroke-linecap:round;stroke-linejoin:round;stroke:rgb(18.03894%,18.429565%,32.548523%);stroke-opacity:1;stroke-miterlimit:10;" d="M 1527.054108 1821.807872 C 1455.76263 1966.837946 1515.445343 2141.9686 1660.486626 2213.25225 " transform="matrix(0.0286018,0,0,-0.0285501,-20.445982,86.047977)"/>
</g>
<mask id="mask6">
  <g filter="url(#alpha)">
<rect x="0" y="0" width="1125" height="525.000007" style="fill:rgb(0%,0%,0%);fill-opacity:0.498;stroke:none;"/>
  </g>
</mask>
<clipPath id="clip19">
  <path d="M 2 0.234375 L 79.949219 0.234375 L 79.949219 50 L 2 50 Z M 2 0.234375 "/>
</clipPath>
<clipPath id="clip20">
  <path d="M 1 0.234375 L 79.949219 0.234375 L 79.949219 50.226562 L 1 50.226562 Z M 1 0.234375 "/>
</clipPath>
<clipPath id="clip18">
  <rect x="0" y="0" width="81" height="52"/>
</clipPath>
<g id="surface23" clip-path="url(#clip18)">
<g clip-path="url(#clip19)" clip-rule="nonzero">
<path style=" stroke:none;fill-rule:nonzero;fill:rgb(100%,100%,100%);fill-opacity:1;" d="M 52.414062 49.640625 C 57.464844 49.640625 62.058594 46.953125 64.539062 42.589844 C 65.816406 43.246094 67.230469 43.632812 68.671875 43.707031 C 68.851562 43.714844 69.019531 43.71875 69.195312 43.71875 C 74.570312 43.71875 78.996094 39.519531 79.269531 34.152344 C 79.40625 31.46875 78.488281 28.886719 76.679688 26.890625 C 75 25.03125 72.738281 23.882812 70.261719 23.621094 C 70.277344 23.441406 70.292969 23.261719 70.300781 23.082031 C 70.4375 20.394531 69.519531 17.816406 67.710938 15.816406 C 65.902344 13.816406 63.425781 12.644531 60.734375 12.507812 C 60.558594 12.496094 60.386719 12.492188 60.210938 12.492188 C 59.6875 12.492188 59.164062 12.535156 58.652344 12.613281 C 58.246094 6.261719 53.105469 1.132812 46.664062 0.808594 C 46.441406 0.796875 46.226562 0.789062 46.007812 0.789062 C 41.082031 0.789062 36.644531 3.621094 34.5625 8.046875 C 33.636719 7.820312 32.6875 7.683594 31.734375 7.632812 C 31.476562 7.621094 31.210938 7.613281 30.953125 7.613281 C 24.941406 7.613281 19.558594 11.121094 17.132812 16.585938 C 9.117188 16.933594 2.578125 23.382812 2.164062 31.425781 C 1.726562 40.042969 8.390625 47.414062 17.027344 47.855469 C 17.296875 47.871094 17.570312 47.875 17.835938 47.875 C 21.671875 47.875 25.316406 46.492188 28.1875 43.96875 C 29.910156 46.824219 32.964844 48.667969 36.320312 48.835938 C 36.496094 48.847656 36.671875 48.851562 36.84375 48.851562 C 39.285156 48.851562 41.609375 47.980469 43.445312 46.390625 C 45.757812 48.324219 48.667969 49.46875 51.691406 49.621094 C 51.933594 49.632812 52.175781 49.640625 52.414062 49.640625 "/>
</g>
<g clip-path="url(#clip20)" clip-rule="nonzero">
<path style=" stroke:none;fill-rule:nonzero;fill:rgb(18.03894%,18.429565%,32.548523%);fill-opacity:1;" d="M 46.007812 0.21875 C 46.234375 0.21875 46.464844 0.226562 46.691406 0.238281 C 53.222656 0.566406 58.46875 5.617188 59.167969 11.972656 C 59.515625 11.9375 59.863281 11.921875 60.210938 11.921875 C 60.394531 11.921875 60.582031 11.929688 60.765625 11.9375 C 63.609375 12.082031 66.226562 13.324219 68.136719 15.433594 C 70.046875 17.542969 71.019531 20.273438 70.871094 23.109375 L 70.871094 23.128906 C 73.277344 23.507812 75.457031 24.683594 77.105469 26.503906 C 79.015625 28.617188 79.988281 31.34375 79.839844 34.1875 C 79.550781 39.851562 74.875 44.289062 69.195312 44.289062 C 69.011719 44.289062 68.828125 44.285156 68.644531 44.273438 C 67.300781 44.207031 65.976562 43.882812 64.761719 43.332031 C 62.128906 47.605469 57.496094 50.210938 52.414062 50.210938 C 52.167969 50.210938 51.910156 50.207031 51.664062 50.195312 C 48.675781 50.039062 45.792969 48.960938 43.453125 47.128906 C 41.574219 48.613281 39.261719 49.421875 36.84375 49.421875 C 36.660156 49.421875 36.476562 49.417969 36.292969 49.410156 C 32.96875 49.238281 29.929688 47.519531 28.058594 44.828125 C 25.167969 47.171875 21.589844 48.445312 17.835938 48.445312 C 17.558594 48.445312 17.273438 48.441406 16.996094 48.421875 C 8.046875 47.96875 1.136719 40.328125 1.59375 31.394531 C 1.804688 27.269531 3.558594 23.417969 6.539062 20.554688 C 9.320312 17.871094 12.925781 16.28125 16.757812 16.035156 C 19.34375 10.550781 24.835938 7.042969 30.953125 7.042969 C 31.222656 7.042969 31.492188 7.046875 31.765625 7.0625 C 32.597656 7.105469 33.429688 7.214844 34.246094 7.386719 C 36.5 3.003906 41.015625 0.21875 46.007812 0.21875 Z M 46.007812 1.363281 C 41.054688 1.363281 36.734375 4.367188 34.886719 8.71875 C 33.867188 8.4375 32.804688 8.257812 31.707031 8.203125 C 31.453125 8.191406 31.203125 8.183594 30.953125 8.183594 C 24.945312 8.183594 19.714844 11.851562 17.515625 17.148438 C 9.660156 17.300781 3.144531 23.5 2.738281 31.453125 C 2.3125 39.773438 8.722656 46.859375 17.054688 47.285156 C 17.316406 47.296875 17.578125 47.304688 17.835938 47.304688 C 21.890625 47.304688 25.605469 45.695312 28.332031 43.058594 C 29.824219 46.003906 32.8125 48.085938 36.351562 48.265625 C 36.515625 48.277344 36.679688 48.28125 36.84375 48.28125 C 39.386719 48.28125 41.71875 47.273438 43.4375 45.625 C 45.640625 47.617188 48.523438 48.890625 51.722656 49.050781 C 51.953125 49.0625 52.183594 49.070312 52.414062 49.070312 C 57.554688 49.070312 62.082031 46.144531 64.3125 41.808594 C 65.601562 42.578125 67.097656 43.054688 68.703125 43.136719 C 68.867188 43.144531 69.03125 43.148438 69.195312 43.148438 C 74.230469 43.148438 78.4375 39.207031 78.699219 34.125 C 78.964844 28.882812 74.925781 24.414062 69.671875 24.148438 C 69.652344 24.148438 69.628906 24.148438 69.609375 24.148438 C 69.671875 23.789062 69.710938 23.425781 69.730469 23.054688 C 69.996094 17.8125 65.957031 13.34375 60.703125 13.078125 C 60.539062 13.066406 60.375 13.0625 60.210938 13.0625 C 59.488281 13.0625 58.78125 13.144531 58.105469 13.296875 C 58.042969 6.972656 53.050781 1.703125 46.636719 1.378906 C 46.421875 1.367188 46.21875 1.363281 46.007812 1.363281 "/>
</g>
<path style="fill-rule:nonzero;fill:rgb(100%,100%,100%);fill-opacity:1;stroke-width:40;stroke-linecap:round;stroke-linejoin:round;stroke:rgb(18.03894%,18.429565%,32.548523%);stroke-opacity:1;stroke-miterlimit:10;" d="M 2599.753426 2044.330247 C 2599.753426 2251.066512 2767.329372 2418.672022 2974.101975 2418.672022 " transform="matrix(-0.0286018,0,0,-0.0285501,101.521613,85.912735)"/>
<path style="fill-rule:nonzero;fill:rgb(100%,100%,100%);fill-opacity:1;stroke-width:40;stroke-linecap:round;stroke-linejoin:round;stroke:rgb(18.03894%,18.429565%,32.548523%);stroke-opacity:1;stroke-miterlimit:10;" d="M 2024.641518 2608.032042 C 2170.911965 2754.430324 2407.867358 2754.430324 2554.137805 2608.168863 " transform="matrix(-0.0286018,0,0,-0.0285501,101.521613,85.912735)"/>
<path style="fill:none;stroke-width:40;stroke-linecap:round;stroke-linejoin:round;stroke:rgb(18.03894%,18.429565%,32.548523%);stroke-opacity:1;stroke-miterlimit:10;" d="M 1497.057263 2047.750767 C 1352.015979 1976.467118 1176.791905 2036.120997 1105.500426 2181.151071 " transform="matrix(-0.0286018,0,0,-0.0285501,101.521613,85.912735)"/>
<path style="fill:none;stroke-width:40;stroke-linecap:round;stroke-linejoin:round;stroke:rgb(18.03894%,18.429565%,32.548523%);stroke-opacity:1;stroke-miterlimit:10;" d="M 1527.10348 1821.859587 C 1455.812001 1966.752839 1515.494714 2142.020315 1660.535998 2213.303965 " transform="matrix(-0.0286018,0,0,-0.0285501,101.521613,85.912735)"/>
</g>
<mask id="mask7">
  <g filter="url(#alpha)">
<rect x="0" y="0" width="1125" height="525.000007" style="fill:rgb(0%,0%,0%);fill-opacity:0.498;stroke:none;"/>
  </g>
</mask>
<clipPath id="clip22">
  <path d="M 1 0.0429688 L 79 0.0429688 L 79 50 L 1 50 Z M 1 0.0429688 "/>
</clipPath>
<clipPath id="clip23">
  <path d="M 1 0.0429688 L 79.933594 0.0429688 L 79.933594 50.035156 L 1 50.035156 Z M 1 0.0429688 "/>
</clipPath>
<clipPath id="clip21">
  <rect x="0" y="0" width="82" height="52"/>
</clipPath>
<g id="surface26" clip-path="url(#clip21)">
<g clip-path="url(#clip22)" clip-rule="nonzero">
<path style=" stroke:none;fill-rule:nonzero;fill:rgb(100%,100%,100%);fill-opacity:1;" d="M 28.492188 49.449219 C 23.441406 49.449219 18.847656 46.761719 16.367188 42.398438 C 15.09375 43.054688 13.675781 43.441406 12.234375 43.515625 C 12.058594 43.523438 11.886719 43.527344 11.710938 43.527344 C 6.339844 43.527344 1.914062 39.328125 1.640625 33.964844 C 1.5 31.277344 2.421875 28.695312 4.226562 26.699219 C 5.910156 24.839844 8.171875 23.691406 10.648438 23.429688 C 10.632812 23.25 10.617188 23.070312 10.609375 22.890625 C 10.472656 20.203125 11.390625 17.625 13.195312 15.625 C 15.003906 13.625 17.480469 12.453125 20.175781 12.316406 C 20.351562 12.304688 20.523438 12.300781 20.695312 12.300781 C 21.21875 12.300781 21.742188 12.34375 22.257812 12.421875 C 22.660156 6.070312 27.800781 0.941406 34.246094 0.617188 C 34.464844 0.605469 34.683594 0.597656 34.898438 0.597656 C 39.824219 0.597656 44.265625 3.429688 46.347656 7.855469 C 47.273438 7.628906 48.222656 7.492188 49.171875 7.441406 C 49.433594 7.429688 49.695312 7.421875 49.957031 7.421875 C 55.964844 7.421875 61.347656 10.929688 63.777344 16.394531 C 71.789062 16.742188 78.332031 23.191406 78.742188 31.234375 C 79.179688 39.851562 72.515625 47.222656 63.882812 47.664062 C 63.613281 47.679688 63.339844 47.683594 63.074219 47.683594 C 59.238281 47.683594 55.589844 46.300781 52.722656 43.777344 C 51 46.632812 47.945312 48.476562 44.585938 48.644531 C 44.414062 48.65625 44.238281 48.660156 44.0625 48.660156 C 41.625 48.660156 39.300781 47.789062 37.460938 46.199219 C 35.148438 48.132812 32.238281 49.277344 29.21875 49.429688 C 28.972656 49.441406 28.734375 49.449219 28.492188 49.449219 "/>
</g>
<g clip-path="url(#clip23)" clip-rule="nonzero">
<path style=" stroke:none;fill-rule:nonzero;fill:rgb(18.03894%,18.429565%,32.548523%);fill-opacity:1;" d="M 34.898438 0.0273438 C 34.675781 0.0273438 34.441406 0.0351562 34.214844 0.046875 C 27.6875 0.375 22.4375 5.425781 21.742188 11.78125 C 21.394531 11.75 21.046875 11.730469 20.695312 11.730469 C 20.511719 11.730469 20.328125 11.738281 20.144531 11.746094 C 17.296875 11.890625 14.679688 13.132812 12.769531 15.242188 C 10.863281 17.351562 9.890625 20.082031 10.035156 22.917969 L 10.035156 22.9375 C 7.632812 23.316406 5.453125 24.492188 3.804688 26.3125 C 1.894531 28.425781 0.921875 31.152344 1.066406 33.996094 C 1.359375 39.660156 6.035156 44.097656 11.710938 44.097656 C 11.894531 44.097656 12.082031 44.09375 12.265625 44.085938 C 13.605469 44.015625 14.929688 43.691406 16.144531 43.140625 C 18.78125 47.414062 23.414062 50.019531 28.492188 50.019531 C 28.742188 50.019531 28.996094 50.015625 29.246094 50.003906 C 32.234375 49.847656 35.113281 48.769531 37.457031 46.9375 C 39.335938 48.421875 41.648438 49.230469 44.0625 49.230469 C 44.246094 49.230469 44.433594 49.226562 44.617188 49.21875 C 47.941406 49.050781 50.980469 47.328125 52.851562 44.636719 C 55.738281 46.980469 59.316406 48.253906 63.074219 48.253906 C 63.351562 48.253906 63.632812 48.25 63.910156 48.230469 C 72.859375 47.777344 79.769531 40.136719 79.3125 31.203125 C 79.105469 27.078125 77.347656 23.226562 74.371094 20.363281 C 71.585938 17.679688 67.980469 16.089844 64.152344 15.84375 C 61.566406 10.359375 56.074219 6.851562 49.957031 6.851562 C 49.6875 6.851562 49.414062 6.859375 49.144531 6.871094 C 48.3125 6.914062 47.480469 7.023438 46.660156 7.199219 C 44.40625 2.8125 39.894531 0.0273438 34.898438 0.0273438 Z M 34.898438 1.171875 C 39.855469 1.171875 44.175781 4.175781 46.023438 8.527344 C 47.042969 8.246094 48.101562 8.066406 49.199219 8.015625 C 49.457031 8 49.707031 7.992188 49.957031 7.992188 C 55.960938 7.992188 61.195312 11.660156 63.394531 16.957031 C 71.25 17.109375 77.761719 23.308594 78.171875 31.261719 C 78.59375 39.582031 72.183594 46.667969 63.855469 47.09375 C 63.589844 47.109375 63.332031 47.113281 63.074219 47.113281 C 59.015625 47.113281 55.304688 45.503906 52.574219 42.867188 C 51.082031 45.8125 48.097656 47.894531 44.558594 48.074219 C 44.394531 48.085938 44.226562 48.089844 44.0625 48.089844 C 41.519531 48.089844 39.191406 47.082031 37.472656 45.433594 C 35.265625 47.425781 32.386719 48.699219 29.183594 48.859375 C 28.953125 48.871094 28.726562 48.878906 28.492188 48.878906 C 23.355469 48.878906 18.824219 45.953125 16.597656 41.617188 C 15.308594 42.386719 13.8125 42.863281 12.203125 42.945312 C 12.042969 42.953125 11.875 42.957031 11.710938 42.957031 C 6.675781 42.957031 2.46875 39.015625 2.210938 33.933594 C 1.941406 28.691406 5.980469 24.222656 11.234375 23.960938 C 11.257812 23.957031 11.277344 23.957031 11.296875 23.957031 C 11.238281 23.597656 11.199219 23.234375 11.179688 22.863281 C 10.910156 17.621094 14.949219 13.152344 20.203125 12.886719 C 20.371094 12.875 20.535156 12.871094 20.695312 12.871094 C 21.421875 12.871094 22.125 12.953125 22.804688 13.105469 C 22.867188 6.78125 27.859375 1.511719 34.273438 1.1875 C 34.484375 1.175781 34.691406 1.171875 34.898438 1.171875 "/>
</g>
<path style="fill-rule:nonzero;fill:rgb(100%,100%,100%);fill-opacity:1;stroke-width:40;stroke-linecap:round;stroke-linejoin:round;stroke:rgb(18.03894%,18.429565%,32.548523%);stroke-opacity:1;stroke-miterlimit:10;" d="M 2599.673353 2044.33673 C 2599.673353 2251.072995 2767.2493 2418.678505 2974.158476 2418.678505 " transform="matrix(0.0286018,0,0,-0.0285501,-20.613073,85.721514)"/>
<path style="fill-rule:nonzero;fill:rgb(100%,100%,100%);fill-opacity:1;stroke-width:40;stroke-linecap:round;stroke-linejoin:round;stroke:rgb(18.03894%,18.429565%,32.548523%);stroke-opacity:1;stroke-miterlimit:10;" d="M 2024.561446 2608.038526 C 2170.831893 2754.436808 2407.923859 2754.436808 2554.194307 2608.175347 " transform="matrix(0.0286018,0,0,-0.0285501,-20.613073,85.721514)"/>
<path style="fill:none;stroke-width:40;stroke-linecap:round;stroke-linejoin:round;stroke:rgb(18.03894%,18.429565%,32.548523%);stroke-opacity:1;stroke-miterlimit:10;" d="M 1496.97719 2047.757251 C 1351.935907 1976.33678 1176.848406 2036.127481 1105.556927 2181.157554 " transform="matrix(0.0286018,0,0,-0.0285501,-20.613073,85.721514)"/>
<path style="fill:none;stroke-width:40;stroke-linecap:round;stroke-linejoin:round;stroke:rgb(18.03894%,18.429565%,32.548523%);stroke-opacity:1;stroke-miterlimit:10;" d="M 1527.159981 1821.86607 C 1455.731929 1966.759323 1515.551215 2142.026798 1660.455925 2213.310448 " transform="matrix(0.0286018,0,0,-0.0285501,-20.613073,85.721514)"/>
</g>
<mask id="mask8">
  <g filter="url(#alpha)">
<rect x="0" y="0" width="1125" height="525.000007" style="fill:rgb(0%,0%,0%);fill-opacity:0.498;stroke:none;"/>
  </g>
</mask>
<clipPath id="clip25">
  <path d="M 2 0.207031 L 80 0.207031 L 80 50 L 2 50 Z M 2 0.207031 "/>
</clipPath>
<clipPath id="clip26">
  <path d="M 2 0.207031 L 80.609375 0.207031 L 80.609375 50.195312 L 2 50.195312 Z M 2 0.207031 "/>
</clipPath>
<clipPath id="clip24">
  <rect x="0" y="0" width="81" height="52"/>
</clipPath>
<g id="surface29" clip-path="url(#clip24)">
<g clip-path="url(#clip25)" clip-rule="nonzero">
<path style=" stroke:none;fill-rule:nonzero;fill:rgb(100%,100%,100%);fill-opacity:1;" d="M 53.070312 49.613281 C 58.121094 49.613281 62.714844 46.925781 65.195312 42.558594 C 66.472656 43.21875 67.886719 43.605469 69.328125 43.679688 C 69.507812 43.6875 69.679688 43.691406 69.851562 43.691406 C 75.226562 43.691406 79.652344 39.492188 79.925781 34.125 C 80.0625 31.441406 79.144531 28.859375 77.335938 26.863281 C 75.65625 25 73.394531 23.855469 70.917969 23.59375 C 70.933594 23.414062 70.949219 23.234375 70.957031 23.054688 C 71.09375 20.367188 70.175781 17.785156 68.367188 15.789062 C 66.558594 13.789062 64.082031 12.617188 61.390625 12.480469 C 61.214844 12.46875 61.042969 12.464844 60.867188 12.464844 C 60.34375 12.464844 59.820312 12.503906 59.308594 12.585938 C 58.902344 6.234375 53.765625 1.105469 47.320312 0.78125 C 47.101562 0.769531 46.882812 0.761719 46.664062 0.761719 C 41.738281 0.761719 37.300781 3.59375 35.21875 8.015625 C 34.292969 7.792969 33.34375 7.65625 32.394531 7.605469 C 32.132812 7.589844 31.871094 7.585938 31.609375 7.585938 C 25.601562 7.585938 20.21875 11.09375 17.789062 16.558594 C 9.773438 16.90625 3.234375 23.355469 2.820312 31.398438 C 2.382812 40.015625 9.046875 47.386719 17.683594 47.828125 C 17.953125 47.839844 18.226562 47.847656 18.492188 47.847656 C 22.328125 47.847656 25.976562 46.464844 28.84375 43.941406 C 30.566406 46.796875 33.621094 48.636719 36.976562 48.808594 C 37.152344 48.820312 37.328125 48.824219 37.5 48.824219 C 39.941406 48.824219 42.265625 47.953125 44.101562 46.363281 C 46.417969 48.296875 49.324219 49.441406 52.347656 49.59375 C 52.589844 49.605469 52.832031 49.613281 53.070312 49.613281 "/>
</g>
<g clip-path="url(#clip26)" clip-rule="nonzero">
<path style=" stroke:none;fill-rule:nonzero;fill:rgb(18.03894%,18.429565%,32.548523%);fill-opacity:1;" d="M 46.664062 0.191406 C 46.890625 0.191406 47.121094 0.195312 47.347656 0.207031 C 53.878906 0.539062 59.125 5.585938 59.824219 11.945312 C 60.171875 11.910156 60.519531 11.894531 60.867188 11.894531 C 61.050781 11.894531 61.238281 11.898438 61.421875 11.910156 C 64.265625 12.054688 66.882812 13.296875 68.792969 15.40625 C 70.703125 17.515625 71.675781 20.246094 71.527344 23.082031 L 71.527344 23.101562 C 73.933594 23.480469 76.113281 24.65625 77.761719 26.476562 C 79.671875 28.589844 80.644531 31.316406 80.496094 34.15625 C 80.207031 39.824219 75.53125 44.261719 69.851562 44.261719 C 69.667969 44.261719 69.484375 44.257812 69.300781 44.246094 C 67.960938 44.179688 66.636719 43.855469 65.417969 43.300781 C 62.785156 47.574219 58.152344 50.183594 53.070312 50.183594 C 52.824219 50.183594 52.570312 50.175781 52.320312 50.164062 C 49.332031 50.011719 46.449219 48.933594 44.109375 47.097656 C 42.230469 48.585938 39.917969 49.394531 37.5 49.394531 C 37.316406 49.394531 37.132812 49.390625 36.949219 49.378906 C 33.625 49.210938 30.585938 47.492188 28.714844 44.796875 C 25.824219 47.140625 22.246094 48.417969 18.492188 48.417969 C 18.214844 48.417969 17.933594 48.414062 17.65625 48.394531 C 8.703125 47.941406 1.792969 40.300781 2.253906 31.367188 C 2.460938 27.242188 4.21875 23.390625 7.195312 20.523438 C 9.976562 17.84375 13.585938 16.253906 17.414062 16.007812 C 20 10.519531 25.492188 7.015625 31.609375 7.015625 C 31.878906 7.015625 32.148438 7.019531 32.421875 7.035156 C 33.253906 7.078125 34.085938 7.1875 34.902344 7.359375 C 37.15625 2.976562 41.671875 0.191406 46.664062 0.191406 Z M 46.664062 1.332031 C 41.710938 1.332031 37.390625 4.339844 35.542969 8.691406 C 34.523438 8.410156 33.460938 8.230469 32.363281 8.175781 C 32.109375 8.164062 31.859375 8.15625 31.609375 8.15625 C 25.601562 8.15625 20.371094 11.824219 18.171875 17.117188 C 10.316406 17.273438 3.800781 23.472656 3.394531 31.425781 C 2.96875 39.746094 9.378906 46.832031 17.710938 47.257812 C 17.976562 47.269531 18.234375 47.277344 18.492188 47.277344 C 22.546875 47.277344 26.261719 45.667969 28.988281 43.03125 C 30.480469 45.972656 33.46875 48.058594 37.007812 48.238281 C 37.171875 48.25 37.339844 48.253906 37.5 48.253906 C 40.042969 48.253906 42.375 47.246094 44.09375 45.597656 C 46.300781 47.585938 49.179688 48.859375 52.378906 49.023438 C 52.613281 49.035156 52.839844 49.039062 53.070312 49.039062 C 58.210938 49.039062 62.738281 46.117188 64.96875 41.78125 C 66.257812 42.546875 67.753906 43.023438 69.359375 43.109375 C 69.523438 43.117188 69.691406 43.121094 69.851562 43.121094 C 74.886719 43.121094 79.09375 39.179688 79.355469 34.097656 C 79.625 28.855469 75.582031 24.386719 70.332031 24.121094 C 70.308594 24.121094 70.289062 24.121094 70.265625 24.121094 C 70.328125 23.761719 70.367188 23.398438 70.386719 23.027344 C 70.652344 17.785156 66.613281 13.316406 61.359375 13.050781 C 61.195312 13.039062 61.03125 13.035156 60.867188 13.035156 C 60.144531 13.035156 59.4375 13.117188 58.761719 13.269531 C 58.699219 6.945312 53.707031 1.675781 47.292969 1.351562 C 47.078125 1.339844 46.875 1.332031 46.664062 1.332031 "/>
</g>
<path style="fill-rule:nonzero;fill:rgb(100%,100%,100%);fill-opacity:1;stroke-width:40;stroke-linecap:round;stroke-linejoin:round;stroke:rgb(18.03894%,18.429565%,32.548523%);stroke-opacity:1;stroke-miterlimit:10;" d="M 2599.632994 2044.306624 C 2599.632994 2251.04289 2767.345514 2418.648399 2974.118117 2418.648399 " transform="matrix(-0.0286018,0,0,-0.0285501,102.178325,85.884717)"/>
<path style="fill-rule:nonzero;fill:rgb(100%,100%,100%);fill-opacity:1;stroke-width:40;stroke-linecap:round;stroke-linejoin:round;stroke:rgb(18.03894%,18.429565%,32.548523%);stroke-opacity:1;stroke-miterlimit:10;" d="M 2024.65766 2608.145241 C 2170.928108 2754.406702 2407.8835 2754.406702 2554.153948 2608.145241 " transform="matrix(-0.0286018,0,0,-0.0285501,102.178325,85.884717)"/>
<path style="fill:none;stroke-width:40;stroke-linecap:round;stroke-linejoin:round;stroke:rgb(18.03894%,18.429565%,32.548523%);stroke-opacity:1;stroke-miterlimit:10;" d="M 1496.936831 2047.727145 C 1352.032121 1976.443495 1176.808047 2036.097375 1105.516568 2181.127448 " transform="matrix(-0.0286018,0,0,-0.0285501,102.178325,85.884717)"/>
<path style="fill:none;stroke-width:40;stroke-linecap:round;stroke-linejoin:round;stroke:rgb(18.03894%,18.429565%,32.548523%);stroke-opacity:1;stroke-miterlimit:10;" d="M 1527.119622 1821.835964 C 1455.828144 1966.866038 1515.510856 2141.996693 1660.55214 2213.280342 " transform="matrix(-0.0286018,0,0,-0.0285501,102.178325,85.884717)"/>
</g>
<mask id="mask9">
  <g filter="url(#alpha)">
<rect x="0" y="0" width="1125" height="525.000007" style="fill:rgb(0%,0%,0%);fill-opacity:0.498;stroke:none;"/>
  </g>
</mask>
<clipPath id="clip28">
  <path d="M 30 1 L 44.953125 1 L 44.953125 44.847656 L 30 44.847656 Z M 30 1 "/>
</clipPath>
<clipPath id="clip29">
  <path d="M 1 1 L 16 1 L 16 44.847656 L 1 44.847656 Z M 1 1 "/>
</clipPath>
<clipPath id="clip30">
  <path d="M 15 1 L 30 1 L 30 44.847656 L 15 44.847656 Z M 15 1 "/>
</clipPath>
<clipPath id="clip31">
  <path d="M 0.785156 0.683594 L 44.953125 0.683594 L 44.953125 44.847656 L 0.785156 44.847656 Z M 0.785156 0.683594 "/>
</clipPath>
<clipPath id="clip32">
  <path d="M 15 24 L 31 24 L 31 44.847656 L 15 44.847656 Z M 15 24 "/>
</clipPath>
<clipPath id="clip33">
  <path d="M 11 0.683594 L 20 0.683594 L 20 26 L 11 26 Z M 11 0.683594 "/>
</clipPath>
<clipPath id="clip34">
  <path d="M 25 0.683594 L 35 0.683594 L 35 26 L 25 26 Z M 25 0.683594 "/>
</clipPath>
<clipPath id="clip27">
  <rect x="0" y="0" width="46" height="45"/>
</clipPath>
<g id="surface32" clip-path="url(#clip27)">
<g clip-path="url(#clip28)" clip-rule="nonzero">
<path style=" stroke:none;fill-rule:nonzero;fill:rgb(95.689392%,93.728638%,93.728638%);fill-opacity:1;" d="M 42.054688 1.238281 L 34.058594 1.238281 L 34.058594 22.273438 C 34.058594 23.445312 33.433594 24.882812 32.148438 24.882812 L 30.234375 24.882812 L 30.234375 44.699219 L 42.054688 44.699219 C 43.492188 44.699219 44.488281 43.355469 44.488281 41.917969 L 44.488281 3.671875 C 44.488281 2.234375 43.492188 1.238281 42.054688 1.238281 Z M 42.054688 1.238281 "/>
</g>
<path style=" stroke:none;fill-rule:nonzero;fill:rgb(19.999695%,19.999695%,19.999695%);fill-opacity:1;" d="M 28.671875 24.535156 L 32.148438 24.535156 C 33.21875 24.535156 33.710938 23.277344 33.710938 22.273438 L 33.710938 1.238281 L 26.410156 1.238281 L 26.410156 22.273438 C 26.410156 23.328125 27.617188 24.535156 28.671875 24.535156 Z M 28.671875 24.535156 "/>
<path style=" stroke:none;fill-rule:nonzero;fill:rgb(19.999695%,19.999695%,19.999695%);fill-opacity:1;" d="M 14.066406 24.535156 L 17.542969 24.535156 C 18.617188 24.535156 19.109375 23.277344 19.109375 22.273438 L 19.109375 1.238281 L 11.808594 1.238281 L 11.808594 22.273438 C 11.808594 23.328125 13.015625 24.535156 14.066406 24.535156 Z M 14.066406 24.535156 "/>
<g clip-path="url(#clip29)" clip-rule="nonzero">
<path style=" stroke:none;fill-rule:nonzero;fill:rgb(95.689392%,93.728638%,93.728638%);fill-opacity:1;" d="M 14.066406 24.882812 C 12.816406 24.882812 11.460938 23.523438 11.460938 22.273438 L 11.460938 1.238281 L 3.8125 1.238281 C 2.375 1.238281 1.03125 2.234375 1.03125 3.671875 L 1.03125 41.917969 C 1.03125 43.355469 2.375 44.699219 3.8125 44.699219 L 15.285156 44.699219 L 15.285156 24.882812 Z M 14.066406 24.882812 "/>
</g>
<g clip-path="url(#clip30)" clip-rule="nonzero">
<path style=" stroke:none;fill-rule:nonzero;fill:rgb(95.689392%,93.728638%,93.728638%);fill-opacity:1;" d="M 28.671875 24.882812 C 27.417969 24.882812 26.0625 23.523438 26.0625 22.273438 L 26.0625 1.238281 L 19.457031 1.238281 L 19.457031 22.273438 C 19.457031 23.445312 18.832031 24.882812 17.542969 24.882812 L 15.632812 24.882812 L 15.632812 44.699219 L 29.886719 44.699219 L 29.886719 24.882812 Z M 28.671875 24.882812 "/>
</g>
<g clip-path="url(#clip31)" clip-rule="nonzero">
<path style="fill:none;stroke-width:2;stroke-linecap:round;stroke-linejoin:round;stroke:rgb(19.999695%,19.999695%,19.999695%);stroke-opacity:1;stroke-miterlimit:10;" d="M 126.50268 119.505199 C 126.50268 123.920673 123.188266 126.504793 118.503144 126.504793 L 8.498291 126.504793 C 4.060346 126.246381 1.622285 123.99932 1.498697 119.505199 L 1.498697 9.500345 C 1.330167 5.129812 4.082816 1.500809 8.498291 1.500809 L 118.503144 1.500809 C 122.918618 1.500809 126.50268 5.084871 126.50268 9.500345 Z M 126.50268 119.505199 " transform="matrix(0.347676,0,0,0.347676,0.682064,0.54461)"/>
</g>
<g clip-path="url(#clip32)" clip-rule="nonzero">
<path style="fill:none;stroke-width:2;stroke-linecap:round;stroke-linejoin:round;stroke:rgb(19.999695%,19.999695%,19.999695%);stroke-opacity:1;stroke-miterlimit:10;" d="M 84.505117 70.002453 L 84.505117 126.504793 L 42.496318 126.504793 L 42.496318 70.002453 " transform="matrix(0.347676,0,0,0.347676,0.682064,0.54461)"/>
</g>
<g clip-path="url(#clip33)" clip-rule="nonzero">
<path style="fill:none;stroke-width:2;stroke-linecap:round;stroke-linejoin:round;stroke:rgb(19.999695%,19.999695%,19.999695%);stroke-opacity:1;stroke-miterlimit:10;" d="M 53.49568 1.995163 L 53.49568 62.49727 C 53.49568 65.800449 51.799149 69.496864 48.49597 69.496864 L 38.49655 69.496864 C 35.204606 69.496864 31.496956 65.800449 31.496956 62.49727 L 31.496956 1.995163 " transform="matrix(0.347676,0,0,0.347676,0.682064,0.54461)"/>
</g>
<g clip-path="url(#clip34)" clip-rule="nonzero">
<path style="fill:none;stroke-width:2;stroke-linecap:round;stroke-linejoin:round;stroke:rgb(19.999695%,19.999695%,19.999695%);stroke-opacity:1;stroke-miterlimit:10;" d="M 95.504479 1.995163 L 95.504479 62.49727 C 95.504479 65.800449 93.796712 69.496864 90.504769 69.496864 L 80.505349 69.496864 C 77.20217 69.496864 73.49452 65.800449 73.49452 62.49727 L 73.49452 1.995163 " transform="matrix(0.347676,0,0,0.347676,0.682064,0.54461)"/>
</g>
</g>
<mask id="mask10">
  <g filter="url(#alpha)">
<rect x="0" y="0" width="1125" height="525.000007" style="fill:rgb(0%,0%,0%);fill-opacity:0.498;stroke:none;"/>
  </g>
</mask>
<clipPath id="clip36">
  <path d="M 30 1 L 44.933594 1 L 44.933594 44.957031 L 30 44.957031 Z M 30 1 "/>
</clipPath>
<clipPath id="clip37">
  <path d="M 1 1 L 16 1 L 16 44.957031 L 1 44.957031 Z M 1 1 "/>
</clipPath>
<clipPath id="clip38">
  <path d="M 15 1 L 30 1 L 30 44.957031 L 15 44.957031 Z M 15 1 "/>
</clipPath>
<clipPath id="clip39">
  <path d="M 0.769531 0.792969 L 44.933594 0.792969 L 44.933594 44.957031 L 0.769531 44.957031 Z M 0.769531 0.792969 "/>
</clipPath>
<clipPath id="clip40">
  <path d="M 15 24 L 31 24 L 31 44.957031 L 15 44.957031 Z M 15 24 "/>
</clipPath>
<clipPath id="clip35">
  <rect x="0" y="0" width="46" height="45"/>
</clipPath>
<g id="surface35" clip-path="url(#clip35)">
<g clip-path="url(#clip36)" clip-rule="nonzero">
<path style=" stroke:none;fill-rule:nonzero;fill:rgb(95.689392%,93.728638%,93.728638%);fill-opacity:1;" d="M 42.039062 1.347656 L 34.042969 1.347656 L 34.042969 22.382812 C 34.042969 23.550781 33.417969 24.988281 32.128906 24.988281 L 30.214844 24.988281 L 30.214844 44.808594 L 42.039062 44.808594 C 43.476562 44.808594 44.472656 43.464844 44.472656 42.027344 L 44.472656 3.78125 C 44.472656 2.34375 43.476562 1.347656 42.039062 1.347656 Z M 42.039062 1.347656 "/>
</g>
<path style=" stroke:none;fill-rule:nonzero;fill:rgb(19.999695%,19.999695%,19.999695%);fill-opacity:1;" d="M 28.652344 24.640625 L 32.128906 24.640625 C 33.203125 24.640625 33.695312 23.386719 33.695312 22.382812 L 33.695312 1.347656 L 26.390625 1.347656 L 26.390625 22.382812 C 26.390625 23.433594 27.597656 24.640625 28.652344 24.640625 Z M 28.652344 24.640625 "/>
<path style=" stroke:none;fill-rule:nonzero;fill:rgb(19.999695%,19.999695%,19.999695%);fill-opacity:1;" d="M 14.050781 24.640625 L 17.527344 24.640625 C 18.601562 24.640625 19.089844 23.386719 19.089844 22.382812 L 19.089844 1.347656 L 11.789062 1.347656 L 11.789062 22.382812 C 11.789062 23.433594 12.996094 24.640625 14.050781 24.640625 Z M 14.050781 24.640625 "/>
<g clip-path="url(#clip37)" clip-rule="nonzero">
<path style=" stroke:none;fill-rule:nonzero;fill:rgb(95.689392%,93.728638%,93.728638%);fill-opacity:1;" d="M 14.050781 24.988281 C 12.800781 24.988281 11.441406 23.632812 11.441406 22.382812 L 11.441406 1.347656 L 3.792969 1.347656 C 2.355469 1.347656 1.011719 2.34375 1.011719 3.78125 L 1.011719 42.027344 C 1.011719 43.464844 2.355469 44.808594 3.792969 44.808594 L 15.265625 44.808594 L 15.265625 24.988281 Z M 14.050781 24.988281 "/>
</g>
<g clip-path="url(#clip38)" clip-rule="nonzero">
<path style=" stroke:none;fill-rule:nonzero;fill:rgb(95.689392%,93.728638%,93.728638%);fill-opacity:1;" d="M 28.652344 24.988281 C 27.402344 24.988281 26.042969 23.632812 26.042969 22.382812 L 26.042969 1.347656 L 19.4375 1.347656 L 19.4375 22.382812 C 19.4375 23.550781 18.816406 24.988281 17.527344 24.988281 L 15.613281 24.988281 L 15.613281 44.808594 L 29.867188 44.808594 L 29.867188 24.988281 Z M 28.652344 24.988281 "/>
</g>
<g clip-path="url(#clip39)" clip-rule="nonzero">
<path style="fill:none;stroke-width:2;stroke-linecap:round;stroke-linejoin:round;stroke:rgb(19.999695%,19.999695%,19.999695%);stroke-opacity:1;stroke-miterlimit:10;" d="M 126.497788 119.498481 C 126.497788 123.913955 123.183373 126.498075 118.498252 126.498075 L 8.504634 126.498075 C 4.066689 126.250898 1.628628 124.003838 1.50504 119.498481 L 1.50504 9.504863 C 1.33651 5.123095 4.077924 1.505327 8.504634 1.505327 L 118.498252 1.505327 C 122.913726 1.505327 126.497788 5.078153 126.497788 9.504863 Z M 126.497788 119.498481 " transform="matrix(0.347676,0,0,0.347676,0.664233,0.652415)"/>
</g>
<g clip-path="url(#clip40)" clip-rule="nonzero">
<path style="fill:none;stroke-width:2;stroke-linecap:round;stroke-linejoin:round;stroke:rgb(19.999695%,19.999695%,19.999695%);stroke-opacity:1;stroke-miterlimit:10;" d="M 84.500224 69.995735 L 84.500224 126.498075 L 42.502661 126.498075 L 42.502661 69.995735 " transform="matrix(0.347676,0,0,0.347676,0.664233,0.652415)"/>
</g>
<path style="fill:none;stroke-width:2;stroke-linecap:round;stroke-linejoin:round;stroke:rgb(19.999695%,19.999695%,19.999695%);stroke-opacity:1;stroke-miterlimit:10;" d="M 53.502023 1.99968 L 53.502023 62.501788 C 53.502023 65.804967 51.805492 69.501382 48.502313 69.501382 L 38.502893 69.501382 C 35.199714 69.501382 31.503299 65.804967 31.503299 62.501788 L 31.503299 1.99968 " transform="matrix(0.347676,0,0,0.347676,0.664233,0.652415)"/>
<path style="fill:none;stroke-width:2;stroke-linecap:round;stroke-linejoin:round;stroke:rgb(19.999695%,19.999695%,19.999695%);stroke-opacity:1;stroke-miterlimit:10;" d="M 95.499586 1.99968 L 95.499586 62.501788 C 95.499586 65.804967 93.803055 69.501382 90.499876 69.501382 L 80.500456 69.501382 C 77.197277 69.501382 73.500863 65.804967 73.500863 62.501788 L 73.500863 1.99968 " transform="matrix(0.347676,0,0,0.347676,0.664233,0.652415)"/>
</g>
<mask id="mask11">
  <g filter="url(#alpha)">
<rect x="0" y="0" width="1125" height="525.000007" style="fill:rgb(0%,0%,0%);fill-opacity:0.498;stroke:none;"/>
  </g>
</mask>
<clipPath id="clip42">
  <path d="M 30 0.421875 L 44.871094 0.421875 L 44.871094 44.585938 L 30 44.585938 Z M 30 0.421875 "/>
</clipPath>
<clipPath id="clip43">
  <path d="M 26 0.421875 L 34 0.421875 L 34 25 L 26 25 Z M 26 0.421875 "/>
</clipPath>
<clipPath id="clip44">
  <path d="M 11 0.421875 L 20 0.421875 L 20 25 L 11 25 Z M 11 0.421875 "/>
</clipPath>
<clipPath id="clip45">
  <path d="M 0.707031 0.421875 L 16 0.421875 L 16 44.585938 L 0.707031 44.585938 Z M 0.707031 0.421875 "/>
</clipPath>
<clipPath id="clip46">
  <path d="M 15 0.421875 L 30 0.421875 L 30 44.585938 L 15 44.585938 Z M 15 0.421875 "/>
</clipPath>
<clipPath id="clip47">
  <path d="M 0.707031 0.421875 L 44.871094 0.421875 L 44.871094 44.585938 L 0.707031 44.585938 Z M 0.707031 0.421875 "/>
</clipPath>
<clipPath id="clip48">
  <path d="M 15 24 L 31 24 L 31 44.585938 L 15 44.585938 Z M 15 24 "/>
</clipPath>
<clipPath id="clip49">
  <path d="M 11 0.421875 L 20 0.421875 L 20 25 L 11 25 Z M 11 0.421875 "/>
</clipPath>
<clipPath id="clip50">
  <path d="M 25 0.421875 L 35 0.421875 L 35 25 L 25 25 Z M 25 0.421875 "/>
</clipPath>
<clipPath id="clip41">
  <rect x="0" y="0" width="45" height="45"/>
</clipPath>
<g id="surface38" clip-path="url(#clip41)">
<g clip-path="url(#clip42)" clip-rule="nonzero">
<path style=" stroke:none;fill-rule:nonzero;fill:rgb(95.689392%,93.728638%,93.728638%);fill-opacity:1;" d="M 41.976562 0.976562 L 33.980469 0.976562 L 33.980469 22.011719 C 33.980469 23.179688 33.355469 24.617188 32.066406 24.617188 L 30.15625 24.617188 L 30.15625 44.4375 L 41.976562 44.4375 C 43.414062 44.4375 44.410156 43.09375 44.410156 41.65625 L 44.410156 3.410156 C 44.410156 1.972656 43.414062 0.976562 41.976562 0.976562 Z M 41.976562 0.976562 "/>
</g>
<g clip-path="url(#clip43)" clip-rule="nonzero">
<path style=" stroke:none;fill-rule:nonzero;fill:rgb(19.999695%,19.999695%,19.999695%);fill-opacity:1;" d="M 28.589844 24.269531 L 32.066406 24.269531 C 33.140625 24.269531 33.632812 23.015625 33.632812 22.011719 L 33.632812 0.976562 L 26.332031 0.976562 L 26.332031 22.011719 C 26.332031 23.0625 27.539062 24.269531 28.589844 24.269531 Z M 28.589844 24.269531 "/>
</g>
<g clip-path="url(#clip44)" clip-rule="nonzero">
<path style=" stroke:none;fill-rule:nonzero;fill:rgb(19.999695%,19.999695%,19.999695%);fill-opacity:1;" d="M 13.988281 24.269531 L 17.464844 24.269531 C 18.539062 24.269531 19.027344 23.015625 19.027344 22.011719 L 19.027344 0.976562 L 11.726562 0.976562 L 11.726562 22.011719 C 11.726562 23.0625 12.933594 24.269531 13.988281 24.269531 Z M 13.988281 24.269531 "/>
</g>
<g clip-path="url(#clip45)" clip-rule="nonzero">
<path style=" stroke:none;fill-rule:nonzero;fill:rgb(95.689392%,93.728638%,93.728638%);fill-opacity:1;" d="M 13.988281 24.617188 C 12.738281 24.617188 11.378906 23.261719 11.378906 22.011719 L 11.378906 0.976562 L 3.730469 0.976562 C 2.292969 0.976562 0.949219 1.972656 0.949219 3.410156 L 0.949219 41.65625 C 0.949219 43.09375 2.292969 44.4375 3.730469 44.4375 L 15.203125 44.4375 L 15.203125 24.617188 Z M 13.988281 24.617188 "/>
</g>
<g clip-path="url(#clip46)" clip-rule="nonzero">
<path style=" stroke:none;fill-rule:nonzero;fill:rgb(95.689392%,93.728638%,93.728638%);fill-opacity:1;" d="M 28.589844 24.617188 C 27.339844 24.617188 25.984375 23.261719 25.984375 22.011719 L 25.984375 0.976562 L 19.375 0.976562 L 19.375 22.011719 C 19.375 23.179688 18.753906 24.617188 17.464844 24.617188 L 15.550781 24.617188 L 15.550781 44.4375 L 29.808594 44.4375 L 29.808594 24.617188 Z M 28.589844 24.617188 "/>
</g>
<g clip-path="url(#clip47)" clip-rule="nonzero">
<path style="fill:none;stroke-width:2;stroke-linecap:round;stroke-linejoin:round;stroke:rgb(19.999695%,19.999695%,19.999695%);stroke-opacity:1;stroke-miterlimit:10;" d="M 126.496166 119.49976 C 126.496166 123.915234 123.192987 126.499353 118.49663 126.499353 L 8.503012 126.499353 C 4.065067 126.252177 1.627007 124.005116 1.503418 119.49976 L 1.503418 9.494906 C 1.334889 5.124373 4.087538 1.49537 8.503012 1.49537 L 118.49663 1.49537 C 122.92334 1.49537 126.496166 5.079432 126.496166 9.494906 Z M 126.496166 119.49976 " transform="matrix(0.347676,0,0,0.347676,0.602297,0.280876)"/>
</g>
<g clip-path="url(#clip48)" clip-rule="nonzero">
<path style="fill:none;stroke-width:2;stroke-linecap:round;stroke-linejoin:round;stroke:rgb(19.999695%,19.999695%,19.999695%);stroke-opacity:1;stroke-miterlimit:10;" d="M 84.498603 69.997014 L 84.498603 126.499353 L 42.50104 126.499353 L 42.50104 69.997014 " transform="matrix(0.347676,0,0,0.347676,0.602297,0.280876)"/>
</g>
<g clip-path="url(#clip49)" clip-rule="nonzero">
<path style="fill:none;stroke-width:2;stroke-linecap:round;stroke-linejoin:round;stroke:rgb(19.999695%,19.999695%,19.999695%);stroke-opacity:1;stroke-miterlimit:10;" d="M 53.500401 2.000959 L 53.500401 62.503066 C 53.500401 65.79501 51.803871 69.50266 48.500691 69.50266 L 38.501272 69.50266 C 35.198092 69.50266 31.501678 65.79501 31.501678 62.503066 L 31.501678 2.000959 " transform="matrix(0.347676,0,0,0.347676,0.602297,0.280876)"/>
</g>
<g clip-path="url(#clip50)" clip-rule="nonzero">
<path style="fill:none;stroke-width:2;stroke-linecap:round;stroke-linejoin:round;stroke:rgb(19.999695%,19.999695%,19.999695%);stroke-opacity:1;stroke-miterlimit:10;" d="M 95.497965 2.000959 L 95.497965 62.503066 C 95.497965 65.79501 93.801434 69.50266 90.498255 69.50266 L 80.498835 69.50266 C 77.195656 69.50266 73.499241 65.79501 73.499241 62.503066 L 73.499241 2.000959 " transform="matrix(0.347676,0,0,0.347676,0.602297,0.280876)"/>
</g>
</g>
<mask id="mask12">
  <g filter="url(#alpha)">
<rect x="0" y="0" width="1125" height="525.000007" style="fill:rgb(0%,0%,0%);fill-opacity:0.498;stroke:none;"/>
  </g>
</mask>
<clipPath id="clip52">
  <path d="M 29 0.363281 L 44.480469 0.363281 L 44.480469 44.53125 L 29 44.53125 Z M 29 0.363281 "/>
</clipPath>
<clipPath id="clip53">
  <path d="M 25 0.363281 L 34 0.363281 L 34 25 L 25 25 Z M 25 0.363281 "/>
</clipPath>
<clipPath id="clip54">
  <path d="M 11 0.363281 L 19 0.363281 L 19 25 L 11 25 Z M 11 0.363281 "/>
</clipPath>
<clipPath id="clip55">
  <path d="M 0.316406 0.363281 L 15 0.363281 L 15 44.53125 L 0.316406 44.53125 Z M 0.316406 0.363281 "/>
</clipPath>
<clipPath id="clip56">
  <path d="M 15 0.363281 L 30 0.363281 L 30 44.53125 L 15 44.53125 Z M 15 0.363281 "/>
</clipPath>
<clipPath id="clip57">
  <path d="M 0.316406 0.363281 L 44.480469 0.363281 L 44.480469 44.53125 L 0.316406 44.53125 Z M 0.316406 0.363281 "/>
</clipPath>
<clipPath id="clip58">
  <path d="M 14 24 L 30 24 L 30 44.53125 L 14 44.53125 Z M 14 24 "/>
</clipPath>
<clipPath id="clip59">
  <path d="M 10 0.363281 L 20 0.363281 L 20 25 L 10 25 Z M 10 0.363281 "/>
</clipPath>
<clipPath id="clip60">
  <path d="M 25 0.363281 L 34 0.363281 L 34 25 L 25 25 Z M 25 0.363281 "/>
</clipPath>
<clipPath id="clip51">
  <rect x="0" y="0" width="45" height="45"/>
</clipPath>
<g id="surface41" clip-path="url(#clip51)">
<g clip-path="url(#clip52)" clip-rule="nonzero">
<path style=" stroke:none;fill-rule:nonzero;fill:rgb(95.689392%,93.728638%,93.728638%);fill-opacity:1;" d="M 41.585938 0.921875 L 33.589844 0.921875 L 33.589844 21.953125 C 33.589844 23.125 32.964844 24.5625 31.675781 24.5625 L 29.761719 24.5625 L 29.761719 44.378906 L 41.585938 44.378906 C 43.023438 44.378906 44.019531 43.035156 44.019531 41.597656 L 44.019531 3.355469 C 44.019531 1.914062 43.023438 0.921875 41.585938 0.921875 Z M 41.585938 0.921875 "/>
</g>
<g clip-path="url(#clip53)" clip-rule="nonzero">
<path style=" stroke:none;fill-rule:nonzero;fill:rgb(19.999695%,19.999695%,19.999695%);fill-opacity:1;" d="M 28.199219 24.214844 L 31.675781 24.214844 C 32.75 24.214844 33.242188 22.957031 33.242188 21.953125 L 33.242188 0.921875 L 25.9375 0.921875 L 25.9375 21.953125 C 25.9375 23.007812 27.144531 24.214844 28.199219 24.214844 Z M 28.199219 24.214844 "/>
</g>
<g clip-path="url(#clip54)" clip-rule="nonzero">
<path style=" stroke:none;fill-rule:nonzero;fill:rgb(19.999695%,19.999695%,19.999695%);fill-opacity:1;" d="M 13.597656 24.214844 L 17.074219 24.214844 C 18.148438 24.214844 18.636719 22.957031 18.636719 21.953125 L 18.636719 0.921875 L 11.335938 0.921875 L 11.335938 21.953125 C 11.335938 23.007812 12.542969 24.214844 13.597656 24.214844 Z M 13.597656 24.214844 "/>
</g>
<g clip-path="url(#clip55)" clip-rule="nonzero">
<path style=" stroke:none;fill-rule:nonzero;fill:rgb(95.689392%,93.728638%,93.728638%);fill-opacity:1;" d="M 13.597656 24.5625 C 12.34375 24.5625 10.988281 23.207031 10.988281 21.953125 L 10.988281 0.921875 L 3.339844 0.921875 C 1.902344 0.921875 0.558594 1.914062 0.558594 3.355469 L 0.558594 41.597656 C 0.558594 43.035156 1.902344 44.378906 3.339844 44.378906 L 14.8125 44.378906 L 14.8125 24.5625 Z M 13.597656 24.5625 "/>
</g>
<g clip-path="url(#clip56)" clip-rule="nonzero">
<path style=" stroke:none;fill-rule:nonzero;fill:rgb(95.689392%,93.728638%,93.728638%);fill-opacity:1;" d="M 28.199219 24.5625 C 26.949219 24.5625 25.589844 23.207031 25.589844 21.953125 L 25.589844 0.921875 L 18.984375 0.921875 L 18.984375 21.953125 C 18.984375 23.125 18.363281 24.5625 17.074219 24.5625 L 15.160156 24.5625 L 15.160156 44.378906 L 29.414062 44.378906 L 29.414062 24.5625 Z M 28.199219 24.5625 "/>
</g>
<g clip-path="url(#clip57)" clip-rule="nonzero">
<path style="fill:none;stroke-width:2;stroke-linecap:round;stroke-linejoin:round;stroke:rgb(19.999695%,19.999695%,19.999695%);stroke-opacity:1;stroke-miterlimit:10;" d="M 126.498142 119.504139 C 126.498142 123.919613 123.183727 126.503733 118.498606 126.503733 L 8.504988 126.503733 C 4.067043 126.245321 1.628982 123.99826 1.505394 119.504139 L 1.505394 9.499286 C 1.325629 5.128753 4.078278 1.49975 8.504988 1.49975 L 118.498606 1.49975 C 122.91408 1.49975 126.498142 5.083811 126.498142 9.499286 Z M 126.498142 119.504139 " transform="matrix(0.347676,0,0,0.347676,0.210985,0.224666)"/>
</g>
<g clip-path="url(#clip58)" clip-rule="nonzero">
<path style="fill:none;stroke-width:2;stroke-linecap:round;stroke-linejoin:round;stroke:rgb(19.999695%,19.999695%,19.999695%);stroke-opacity:1;stroke-miterlimit:10;" d="M 84.500578 70.001393 L 84.500578 126.503733 L 42.503015 126.503733 L 42.503015 70.001393 " transform="matrix(0.347676,0,0,0.347676,0.210985,0.224666)"/>
</g>
<g clip-path="url(#clip59)" clip-rule="nonzero">
<path style="fill:none;stroke-width:2;stroke-linecap:round;stroke-linejoin:round;stroke:rgb(19.999695%,19.999695%,19.999695%);stroke-opacity:1;stroke-miterlimit:10;" d="M 53.502377 2.005338 L 53.502377 62.496211 C 53.502377 65.79939 51.794611 69.495805 48.502667 69.495805 L 38.503247 69.495805 C 35.200068 69.495805 31.503653 65.79939 31.503653 62.496211 L 31.503653 2.005338 " transform="matrix(0.347676,0,0,0.347676,0.210985,0.224666)"/>
</g>
<g clip-path="url(#clip60)" clip-rule="nonzero">
<path style="fill:none;stroke-width:2;stroke-linecap:round;stroke-linejoin:round;stroke:rgb(19.999695%,19.999695%,19.999695%);stroke-opacity:1;stroke-miterlimit:10;" d="M 95.49994 2.005338 L 95.49994 62.496211 C 95.49994 65.79939 93.803409 69.495805 90.50023 69.495805 L 80.50081 69.495805 C 77.197631 69.495805 73.501217 65.79939 73.501217 62.496211 L 73.501217 2.005338 " transform="matrix(0.347676,0,0,0.347676,0.210985,0.224666)"/>
</g>
</g>
<mask id="mask13">
  <g filter="url(#alpha)">
<rect x="0" y="0" width="1125" height="525.000007" style="fill:rgb(0%,0%,0%);fill-opacity:0.498;stroke:none;"/>
  </g>
</mask>
<clipPath id="clip62">
  <path d="M 29 0.253906 L 44.632812 0.253906 L 44.632812 44.417969 L 29 44.417969 Z M 29 0.253906 "/>
</clipPath>
<clipPath id="clip63">
  <path d="M 26 0.253906 L 34 0.253906 L 34 25 L 26 25 Z M 26 0.253906 "/>
</clipPath>
<clipPath id="clip64">
  <path d="M 11 0.253906 L 19 0.253906 L 19 25 L 11 25 Z M 11 0.253906 "/>
</clipPath>
<clipPath id="clip65">
  <path d="M 0.464844 0.253906 L 15 0.253906 L 15 44.417969 L 0.464844 44.417969 Z M 0.464844 0.253906 "/>
</clipPath>
<clipPath id="clip66">
  <path d="M 15 0.253906 L 30 0.253906 L 30 44.417969 L 15 44.417969 Z M 15 0.253906 "/>
</clipPath>
<clipPath id="clip67">
  <path d="M 0.464844 0.253906 L 44.632812 0.253906 L 44.632812 44.417969 L 0.464844 44.417969 Z M 0.464844 0.253906 "/>
</clipPath>
<clipPath id="clip68">
  <path d="M 14 24 L 31 24 L 31 44.417969 L 14 44.417969 Z M 14 24 "/>
</clipPath>
<clipPath id="clip69">
  <path d="M 10 0.253906 L 20 0.253906 L 20 25 L 10 25 Z M 10 0.253906 "/>
</clipPath>
<clipPath id="clip70">
  <path d="M 25 0.253906 L 34 0.253906 L 34 25 L 25 25 Z M 25 0.253906 "/>
</clipPath>
<clipPath id="clip61">
  <rect x="0" y="0" width="45" height="45"/>
</clipPath>
<g id="surface44" clip-path="url(#clip61)">
<g clip-path="url(#clip62)" clip-rule="nonzero">
<path style=" stroke:none;fill-rule:nonzero;fill:rgb(95.689392%,93.728638%,93.728638%);fill-opacity:1;" d="M 41.734375 0.808594 L 33.738281 0.808594 L 33.738281 21.84375 C 33.738281 23.015625 33.113281 24.453125 31.824219 24.453125 L 29.914062 24.453125 L 29.914062 44.269531 L 41.734375 44.269531 C 43.171875 44.269531 44.167969 42.925781 44.167969 41.488281 L 44.167969 3.242188 C 44.167969 1.804688 43.171875 0.808594 41.734375 0.808594 Z M 41.734375 0.808594 "/>
</g>
<g clip-path="url(#clip63)" clip-rule="nonzero">
<path style=" stroke:none;fill-rule:nonzero;fill:rgb(19.999695%,19.999695%,19.999695%);fill-opacity:1;" d="M 28.347656 24.105469 L 31.824219 24.105469 C 32.898438 24.105469 33.390625 22.847656 33.390625 21.84375 L 33.390625 0.808594 L 26.089844 0.808594 L 26.089844 21.84375 C 26.089844 22.898438 27.296875 24.105469 28.347656 24.105469 Z M 28.347656 24.105469 "/>
</g>
<g clip-path="url(#clip64)" clip-rule="nonzero">
<path style=" stroke:none;fill-rule:nonzero;fill:rgb(19.999695%,19.999695%,19.999695%);fill-opacity:1;" d="M 13.746094 24.105469 L 17.222656 24.105469 C 18.296875 24.105469 18.789062 22.847656 18.789062 21.84375 L 18.789062 0.808594 L 11.488281 0.808594 L 11.488281 21.84375 C 11.488281 22.898438 12.695312 24.105469 13.746094 24.105469 Z M 13.746094 24.105469 "/>
</g>
<g clip-path="url(#clip65)" clip-rule="nonzero">
<path style=" stroke:none;fill-rule:nonzero;fill:rgb(95.689392%,93.728638%,93.728638%);fill-opacity:1;" d="M 13.746094 24.453125 C 12.496094 24.453125 11.140625 23.09375 11.140625 21.84375 L 11.140625 0.808594 L 3.492188 0.808594 C 2.050781 0.808594 0.707031 1.804688 0.707031 3.242188 L 0.707031 41.488281 C 0.707031 42.925781 2.050781 44.269531 3.492188 44.269531 L 14.964844 44.269531 L 14.964844 24.453125 Z M 13.746094 24.453125 "/>
</g>
<g clip-path="url(#clip66)" clip-rule="nonzero">
<path style=" stroke:none;fill-rule:nonzero;fill:rgb(95.689392%,93.728638%,93.728638%);fill-opacity:1;" d="M 28.347656 24.453125 C 27.097656 24.453125 25.742188 23.09375 25.742188 21.84375 L 25.742188 0.808594 L 19.136719 0.808594 L 19.136719 21.84375 C 19.136719 23.015625 18.511719 24.453125 17.222656 24.453125 L 15.3125 24.453125 L 15.3125 44.269531 L 29.566406 44.269531 L 29.566406 24.453125 Z M 28.347656 24.453125 "/>
</g>
<g clip-path="url(#clip67)" clip-rule="nonzero">
<path style="fill:none;stroke-width:2;stroke-linecap:round;stroke-linejoin:round;stroke:rgb(19.999695%,19.999695%,19.999695%);stroke-opacity:1;stroke-miterlimit:10;" d="M 126.504181 119.494408 C 126.504181 123.921118 123.189767 126.505237 118.504645 126.505237 L 8.499791 126.505237 C 4.061847 126.246825 1.623786 123.999765 1.500198 119.494408 L 1.500198 9.50079 C 1.331668 5.130257 4.084317 1.501254 8.499791 1.501254 L 118.504645 1.501254 C 122.920119 1.501254 126.504181 5.085316 126.504181 9.50079 Z M 126.504181 119.494408 " transform="matrix(0.347676,0,0,0.347676,0.361229,0.114768)"/>
</g>
<g clip-path="url(#clip68)" clip-rule="nonzero">
<path style="fill:none;stroke-width:2;stroke-linecap:round;stroke-linejoin:round;stroke:rgb(19.999695%,19.999695%,19.999695%);stroke-opacity:1;stroke-miterlimit:10;" d="M 84.495382 70.002897 L 84.495382 126.505237 L 42.497819 126.505237 L 42.497819 70.002897 " transform="matrix(0.347676,0,0,0.347676,0.361229,0.114768)"/>
</g>
<g clip-path="url(#clip69)" clip-rule="nonzero">
<path style="fill:none;stroke-width:2;stroke-linecap:round;stroke-linejoin:round;stroke:rgb(19.999695%,19.999695%,19.999695%);stroke-opacity:1;stroke-miterlimit:10;" d="M 53.497181 1.995607 L 53.497181 62.497715 C 53.497181 65.800894 51.80065 69.497309 48.497471 69.497309 L 38.498051 69.497309 C 35.194872 69.497309 31.498457 65.800894 31.498457 62.497715 L 31.498457 1.995607 " transform="matrix(0.347676,0,0,0.347676,0.361229,0.114768)"/>
</g>
<g clip-path="url(#clip70)" clip-rule="nonzero">
<path style="fill:none;stroke-width:2;stroke-linecap:round;stroke-linejoin:round;stroke:rgb(19.999695%,19.999695%,19.999695%);stroke-opacity:1;stroke-miterlimit:10;" d="M 95.494744 1.995607 L 95.494744 62.497715 C 95.494744 65.800894 93.798213 69.497309 90.495034 69.497309 L 80.495614 69.497309 C 77.203671 69.497309 73.49602 65.800894 73.49602 62.497715 L 73.49602 1.995607 " transform="matrix(0.347676,0,0,0.347676,0.361229,0.114768)"/>
</g>
</g>
</defs>
<g id="surface1">
<g clip-path="url(#clip1)" clip-rule="nonzero">
<path style=" stroke:none;fill-rule:nonzero;fill:rgb(100%,100%,100%);fill-opacity:1;" d="M 1.070312 0 L 1123.929688 0 L 1123.929688 531.488281 L 1.070312 531.488281 Z M 1.070312 0 "/>
<path style=" stroke:none;fill-rule:nonzero;fill:rgb(100%,100%,100%);fill-opacity:1;" d="M 1.070312 0 L 1123.929688 0 L 1123.929688 524 L 1.070312 524 Z M 1.070312 0 "/>
<path style=" stroke:none;fill-rule:nonzero;fill:rgb(70.199585%,88.62915%,100%);fill-opacity:1;" d="M 1.070312 0 L 1123.929688 0 L 1123.929688 524 L 1.070312 524 Z M 1.070312 0 "/>
</g>
<use xlink:href="#surface5" transform="matrix(1,0,0,1,247,75)" mask="url(#mask0)"/>
<use xlink:href="#surface8" transform="matrix(1,0,0,1,895,53)" mask="url(#mask1)"/>
<use xlink:href="#surface11" transform="matrix(1,0,0,1,934,281)" mask="url(#mask2)"/>
<use xlink:href="#surface14" transform="matrix(1,0,0,1,274,332)" mask="url(#mask3)"/>
<use xlink:href="#surface17" transform="matrix(1,0,0,1,49,151)" mask="url(#mask4)"/>
<use xlink:href="#surface20" transform="matrix(1,0,0,1,497,445)" mask="url(#mask5)"/>
<use xlink:href="#surface23" transform="matrix(1,0,0,1,724,291)" mask="url(#mask6)"/>
<use xlink:href="#surface26" transform="matrix(1,0,0,1,40,395)" mask="url(#mask7)"/>
<use xlink:href="#surface29" transform="matrix(1,0,0,1,991,420)" mask="url(#mask8)"/>
<use xlink:href="#surface32" transform="matrix(1,0,0,1,152,59)" mask="url(#mask9)"/>
<use xlink:href="#surface35" transform="matrix(1,0,0,1,821,179)" mask="url(#mask10)"/>
<use xlink:href="#surface38" transform="matrix(1,0,0,1,353,426)" mask="url(#mask11)"/>
<use xlink:href="#surface41" transform="matrix(1,0,0,1,742,404)" mask="url(#mask12)"/>
<use xlink:href="#surface44" transform="matrix(1,0,0,1,182,285)" mask="url(#mask13)"/>
</g>
</svg>
